<?xml version="1.0" encoding="utf-8"?>
<!-- Generator: Adobe Illustrator 26.0.2, SVG Export Plug-In . SVG Version: 6.00 Build 0)  -->
<svg version="1.1" id="Layer_1" xmlns="http://www.w3.org/2000/svg" xmlns:xlink="http://www.w3.org/1999/xlink" x="0px" y="0px"
	 viewBox="0 0 539.3 335.7" style="enable-background:new 0 0 539.3 335.7;" xml:space="preserve">
<style type="text/css">
	.st0{fill:url(#SVGID_1_);}
	.st1{fill:url(#SVGID_00000021839144200196210400000013814599911430996645_);}
	.st2{fill:url(#SVGID_00000074439358383813704800000007196626936543277229_);}
	.st3{fill:#F69163;}
	.st4{fill:url(#SVGID_00000168107279366963049510000013071112184522819209_);}
	.st5{fill:url(#SVGID_00000101797851322221243740000006945955038903311522_);}
	.st6{fill:#2581C4;}
	.st7{fill:#B45126;}
	.st8{fill:#8EA5A8;}
	.st9{fill:url(#SVGID_00000160885049429490499930000015169122694404690839_);}
	.st10{fill:#4B7BBE;}
	.st11{fill:url(#SVGID_00000003798334985986642870000009984912707405753986_);}
	.st12{fill:url(#SVGID_00000025413547972993647200000011063062226566916016_);}
	.st13{fill:url(#SVGID_00000000942641929234602700000014852981316066488247_);}
	.st14{fill:#F2F2F2;}
	.st15{fill:url(#SVGID_00000176741006865088912150000016578838286524334773_);}
	.st16{fill:url(#SVGID_00000092451193040630269970000008725747975711568029_);}
	.st17{fill:url(#SVGID_00000144313756873095329290000000500557871688700548_);}
	.st18{fill:url(#SVGID_00000021819527958349787010000001155941744177701042_);}
	.st19{fill:url(#SVGID_00000011716083638805552610000004025300382298987430_);}
	.st20{fill:url(#SVGID_00000058570864828094696460000014925555404874642592_);}
	.st21{fill:url(#SVGID_00000084496677652508882430000011750289266794526900_);}
	.st22{fill:url(#SVGID_00000134955815422274652030000004298694520728922261_);}
	.st23{fill:#010101;}
	.st24{fill:url(#SVGID_00000089574505154122608340000011903229362195628700_);}
	.st25{fill:url(#SVGID_00000112604122462609016970000017198670263633986963_);}
	.st26{fill:url(#SVGID_00000137126618188368687990000002200520601445923235_);}
	.st27{fill:url(#SVGID_00000147932521056509315420000008305327770345944745_);}
	.st28{fill:url(#SVGID_00000114783238356333039650000012152848276106848702_);}
	.st29{fill:#939FA1;}
	.st30{fill:#414042;}
	.st31{fill:#FEBF10;}
	.st32{fill:url(#SVGID_00000101781356645967566150000018322829989206224030_);}
	.st33{fill:url(#SVGID_00000126300202639052354550000003898673118507541919_);}
</style>
<linearGradient id="SVGID_1_" gradientUnits="userSpaceOnUse" x1="282.3492" y1="429.2707" x2="263.8892" y2="470.3007" gradientTransform="matrix(1 0 0 1 -36.32 -256.2)">
	<stop  offset="0" style="stop-color:#010101"/>
	<stop  offset="1" style="stop-color:#A9BDBF"/>
</linearGradient>
<path class="st0" d="M225.7,192.7h19c2.4,0,4.3,1.9,4.4,4.2s-1.9,4.3-4.2,4.4h-19c-2.4,0-4.3-1.9-4.4-4.2
	C221.4,194.7,223.3,192.8,225.7,192.7C225.7,192.7,225.7,192.7,225.7,192.7z"/>
<linearGradient id="SVGID_00000116951462347780644710000001491680132926391940_" gradientUnits="userSpaceOnUse" x1="288.3904" y1="491.2898" x2="268.5604" y2="446.1498" gradientTransform="matrix(1 0 0 1 -36.32 -256.2)">
	<stop  offset="0" style="stop-color:#010101"/>
	<stop  offset="1" style="stop-color:#A9BDBF"/>
</linearGradient>
<path style="fill:url(#SVGID_00000116951462347780644710000001491680132926391940_);" d="M254.2,246.5l-22.9-46.9
	c-0.8-1.9,0.1-4.1,2-4.9c1.8-0.7,3.8,0,4.7,1.7l22.8,46.9L254.2,246.5z"/>
<linearGradient id="SVGID_00000085243745865010945200000010251002275135956872_" gradientUnits="userSpaceOnUse" x1="271.5133" y1="456.8317" x2="264.4133" y2="428.3317" gradientTransform="matrix(1 0 0 1 -36.32 -256.2)">
	<stop  offset="0" style="stop-color:#8EA5A8"/>
	<stop  offset="1" style="stop-color:#CFDCDE"/>
</linearGradient>
<path style="fill:url(#SVGID_00000085243745865010945200000010251002275135956872_);" d="M234.6,200.7c1.4,0,2.5-1.1,2.4-2.5
	s-1.1-2.5-2.5-2.4c-1.4,0-2.5,1.1-2.5,2.5C232.1,199.6,233.2,200.7,234.6,200.7C234.6,200.7,234.6,200.7,234.6,200.7z"/>
<path class="st3" d="M258.8,250.4c1.4,0,2.6-1.2,2.6-2.6c0-1.4-1.2-2.6-2.6-2.6c-1.4,0-2.6,1.2-2.6,2.6c0,0,0,0,0,0
	C256.2,249.3,257.4,250.4,258.8,250.4z"/>
<linearGradient id="SVGID_00000039099334407055398950000011229798671986323595_" gradientUnits="userSpaceOnUse" x1="361.3469" y1="373.1786" x2="388.2069" y2="311.9187" gradientTransform="matrix(1 0 0 1 -36.32 -256.2)">
	<stop  offset="0.25" style="stop-color:#45B7E9"/>
	<stop  offset="1" style="stop-color:#495BA9"/>
</linearGradient>
<path style="fill:url(#SVGID_00000039099334407055398950000011229798671986323595_);" d="M261.7,251.7l-12.9-11.2L357.1,53.3
	L370,64.7L261.7,251.7z"/>
<linearGradient id="SVGID_00000142883301179242819060000015458177072536452502_" gradientUnits="userSpaceOnUse" x1="261.5887" y1="379.4572" x2="247.2887" y2="285.1372" gradientTransform="matrix(1 0 0 1 -36.32 -256.2)">
	<stop  offset="0.25" style="stop-color:#45B7E9"/>
	<stop  offset="1" style="stop-color:#495BA9"/>
</linearGradient>
<path style="fill:url(#SVGID_00000142883301179242819060000015458177072536452502_);" d="M250.5,243.6l-57-185.1l14.7-2.8
	l56.9,185.1L250.5,243.6z"/>
<path class="st6" d="M164.4,19.8c-2.2,1.5-3.4,4-3.3,6.7c0,2,4.5,6.7,10,6.7c5.5,0,11.4-2.7,12.3-8.2
	C184.5,19.7,164.4,19.8,164.4,19.8z"/>
<path class="st7" d="M209.6,263.6l-12.6-3.3c-0.4,0.8-0.8,1.8-1.2,2.6l12.6,3.3C208.9,265.4,209.3,264.5,209.6,263.6z"/>
<path class="st3" d="M258.9,276c-0.8,0-1.6,0-2.5-0.1c-1.2-0.1-2.5-0.3-3.7-0.5l1-4.7c1,0.3,2,0.4,3,0.4c0.7,0,1.4,0.1,2.1,0.1
	c12.2,0,22.4-9.3,23.5-21.4c0.6-6.2-1.4-12.5-5.5-17.2c-4-4.8-9.8-7.8-16-8.4l0.4-4.6c15.6,1.4,27,15.2,25.6,30.8
	C285.5,264.8,273.5,275.9,258.9,276L258.9,276z"/>
<path class="st8" d="M267.1,274.9l-10.8-1.2c-48.8-5.6-96.5-17.8-142-36.2l-0.4-0.1l-3-2.9l2.9-3l2.5,2.3
	c45,18.3,92.3,30.3,140.6,35.8l10.8,1.2L267.1,274.9z"/>
<path class="st8" d="M114.9,204.2l-0.4,4.1l154.6,16.6l0.4-4.1L114.9,204.2z"/>
<linearGradient id="SVGID_00000031907560791140097760000013304222240731037371_" gradientUnits="userSpaceOnUse" x1="159.5683" y1="527.0903" x2="148.715" y2="460.6405" gradientTransform="matrix(1 0 0 1 -36.32 -256.2)">
	<stop  offset="0" style="stop-color:#010101"/>
	<stop  offset="1" style="stop-color:#A9BDBF"/>
</linearGradient>
<path style="fill:url(#SVGID_00000031907560791140097760000013304222240731037371_);" d="M115,237.5c9.3,0,16.8-7.5,16.8-16.8
	s-7.5-16.8-16.8-16.8s-16.8,7.5-16.8,16.8c0,0,0,0,0,0C98.2,229.9,105.7,237.5,115,237.5C115,237.5,115,237.5,115,237.5z"/>
<path class="st3" d="M115,226.4c3.2,0,5.8-2.6,5.8-5.7c0-3.2-2.6-5.8-5.7-5.8c-3.2,0-5.8,2.6-5.8,5.7c0,0,0,0,0,0
	C109.3,223.8,111.9,226.4,115,226.4z"/>
<path class="st10" d="M115,223.8c1.7,0,3.2-1.4,3.2-3.1s-1.4-3.2-3.1-3.2s-3.2,1.4-3.2,3.1c0,0,0,0,0,0
	C111.9,222.4,113.3,223.8,115,223.8z"/>
<path class="st6" d="M191.8,54.9l-9-35.2l14.4-2.6l11,42.7L191.8,54.9z"/>
<path class="st6" d="M355.9,45.5c-2,0-3.8-1.3-4.5-3.1l-9-26.8c0,0-0.8-3,3.4-4.2c4-1.1,5.5,1.2,5.5,1.2l9,26.8c0.8,2.5-0.6,5.1-3,6
	C357,45.4,356.5,45.5,355.9,45.5z"/>
<path class="st6" d="M374.8,10.5h-18.7c-2.3,0-4.2-1.9-4.2-4.2c0-2.3,1.9-4.2,4.2-4.2h18.7c2.3,0,4.2,1.9,4.2,4.2
	C379,8.6,377.1,10.5,374.8,10.5z"/>
<linearGradient id="SVGID_00000030465644682425542940000006393682620010932881_" gradientUnits="userSpaceOnUse" x1="239.8539" y1="337.1599" x2="235.4839" y2="228.9198" gradientTransform="matrix(1 0 0 1 -36.32 -256.2)">
	<stop  offset="0" style="stop-color:#3A2512"/>
	<stop  offset="1" style="stop-color:#F99D1C"/>
</linearGradient>
<path style="fill:url(#SVGID_00000030465644682425542940000006393682620010932881_);" d="M154.6,17c0-3,1.2-7.8,6.8-7.8
	c20.1,0,21.9,1.5,27.9,1.5c25.7,0,32.1-1.5,44.9-1.5c6.6,0,12.3,2.3,13.1,7.8c0,0-14.2,2.7-20.4,7s-18.5,10.9-29.4,10.9
	S177,24.1,166.8,22C156.8,20,154.6,17,154.6,17z"/>
<linearGradient id="SVGID_00000067955064595471386270000001217519448855859094_" gradientUnits="userSpaceOnUse" x1="208.1334" y1="337.9489" x2="212.7534" y2="310.4289" gradientTransform="matrix(1 0 0 1 -36.32 -256.2)">
	<stop  offset="0" style="stop-color:#BD2A26"/>
	<stop  offset="1" style="stop-color:#F58020"/>
</linearGradient>
<path style="fill:url(#SVGID_00000067955064595471386270000001217519448855859094_);" d="M176.6,53.9h-3.3v18.3h3.3V53.9z"/>
<linearGradient id="SVGID_00000007389714151121164950000010154150432808996029_" gradientUnits="userSpaceOnUse" x1="420.15" y1="311.88" x2="420.15" y2="328.76" gradientTransform="matrix(1 0 0 1 -36.32 -256.2)">
	<stop  offset="0" style="stop-color:#FFFFFF"/>
	<stop  offset="0.18" style="stop-color:#F9FBFB"/>
	<stop  offset="0.44" style="stop-color:#E6EBEB"/>
	<stop  offset="0.74" style="stop-color:#CAD6D6"/>
	<stop  offset="1" style="stop-color:#A9BDBF"/>
</linearGradient>
<path style="fill:url(#SVGID_00000007389714151121164950000010154150432808996029_);" d="M385.5,53.9h-3.3v18.3h3.3V53.9z"/>
<path class="st14" d="M258.9,251.7c-2.2,0-4-1.8-4-4s1.8-4,4-4s4,1.8,4,4C262.9,249.9,261.1,251.6,258.9,251.7z M258.9,244.3
	c-2,0-3.6,1.6-3.6,3.5s1.6,3.6,3.5,3.6s3.6-1.6,3.6-3.5c0,0,0,0,0,0C262.5,245.9,260.9,244.3,258.9,244.3z"/>
<linearGradient id="SVGID_00000036209570338181327630000013416007316905556381_" gradientUnits="userSpaceOnUse" x1="184.6412" y1="560.1698" x2="345.3211" y2="263.5298" gradientTransform="matrix(1 0 0 1 -36.32 -256.2)">
	<stop  offset="0.25" style="stop-color:#45B7E9"/>
	<stop  offset="0.36" style="stop-color:#49AFE3"/>
	<stop  offset="0.52" style="stop-color:#4E9AD4"/>
	<stop  offset="0.7" style="stop-color:#4A7ABD"/>
	<stop  offset="0.9" style="stop-color:#4962AD"/>
	<stop  offset="1" style="stop-color:#495BA9"/>
</linearGradient>
<path style="fill:url(#SVGID_00000036209570338181327630000013416007316905556381_);" d="M127.1,216.5c-4.5-2.7-5.2-4.5-5.2-4.9
	v-0.1l0.6-0.7l1.1-2.9l87.7-145.3l-12.3-9.6l-92.6,153.1c-3.1,3.3-3.8,10-4,12.9c0,7.9,6.6,11.1,10.1,11.6l157,25.8l3-16.4
	L127.1,216.5z"/>
<linearGradient id="SVGID_00000139277537970311754650000010672602804540209798_" gradientUnits="userSpaceOnUse" x1="406.1172" y1="342.7674" x2="479.9772" y2="547.2674" gradientTransform="matrix(1 0 0 1 -36.32 -256.2)">
	<stop  offset="0.25" style="stop-color:#45B7E9"/>
	<stop  offset="1" style="stop-color:#495BA9"/>
</linearGradient>
<path style="fill:url(#SVGID_00000139277537970311754650000010672602804540209798_);" d="M430.5,216.7l-2.7-2.6
	c-0.7-0.8-0.8-1.1-0.8-1.2c-0.3-1-0.8-2-1.4-2.9c-7.4-11.9-20.6-34.1-26.1-49.4c-2.2-6.1-5.1-18.5-8.2-31.5
	c-4.2-17.8-9-37.9-13.4-48.4l-0.7-1.8l-17.9,5.9l0.7,2.1c3.5,9.8,9,28.7,13.8,45.4c3.3,11.4,6.4,22,8.4,28
	c3.7,11.1,21.7,42.7,30.5,58l1.2,2.2c2.1,3.6,5.6,6.1,9.6,7.1c0.8,0.2,1.6,0.3,2.5,0.3c0.5,0,1,0,1.5-0.1c2.6-0.7,4.5-2.7,5.1-5.3
	C432.7,220.3,432,218.2,430.5,216.7z"/>
<path class="st6" d="M347,25.3c0,0-2.2,13.1,0.5,18.7s11.5-2.7,11.5-2.7l2.6-2l-9.3-15.3L347,25.3z"/>
<linearGradient id="SVGID_00000162329431590305698040000006942552094996626323_" gradientUnits="userSpaceOnUse" x1="393.4417" y1="300.4099" x2="394.5817" y2="325.2599" gradientTransform="matrix(1 0 0 1 -36.32 -256.2)">
	<stop  offset="0.25" style="stop-color:#45B7E9"/>
	<stop  offset="1" style="stop-color:#495BA9"/>
</linearGradient>
<path style="fill:url(#SVGID_00000162329431590305698040000006942552094996626323_);" d="M363,36.8l-20.2,5.9l7.8,20.1h1.4
	c5.7,0,11.5,0.5,17.1,1.5l3.3,0.5L363,36.8z"/>
<linearGradient id="SVGID_00000033366044213741452330000013925665261704999612_" gradientUnits="userSpaceOnUse" x1="403.4911" y1="345.1698" x2="399.3911" y2="323.6298" gradientTransform="matrix(1 0 0 1 -36.32 -256.2)">
	<stop  offset="0.25" style="stop-color:#45B7E9"/>
	<stop  offset="1" style="stop-color:#495BA9"/>
</linearGradient>
<path style="fill:url(#SVGID_00000033366044213741452330000013925665261704999612_);" d="M371,60.5l-1.2-0.1
	c-5.9-0.9-11.8-1.4-17.8-1.5h-3l11.6,30.1l17.9-6L371,60.5z"/>
<path class="st6" d="M361.8,23.9h-0.4c-1-0.2-1.7-1.2-1.5-2.2c0,0,0-0.1,0-0.1c1.1-5.5,6.1-10.3,9.7-13.3l-1.8-0.3
	c-1.1-0.2-1.8-1.1-1.6-2.2c0.2-1.1,1.1-1.8,2.2-1.6l0,0l6.7,1c0.8,0.1,1.5,0.7,1.6,1.5c0.2,0.8-0.2,1.7-1,2c-0.1,0-10.7,6.7-12,13.5
	C363.6,23.3,362.8,24,361.8,23.9z"/>
<path class="st6" d="M347.6,20.1c-1.5,0-2.9-0.8-3.6-2.2c-0.9-1.9-0.1-4.3,1.8-5.2l20.5-10c1.9-0.9,4.3-0.1,5.2,1.8
	c0.9,1.9,0.1,4.3-1.8,5.2l-20.5,10C348.7,20,348.1,20.1,347.6,20.1z"/>
<linearGradient id="SVGID_00000092455653199712411790000005490801273314922416_" gradientUnits="userSpaceOnUse" x1="225.4447" y1="648.0523" x2="324.8447" y2="442.8723" gradientTransform="matrix(1 0 0 1 -36.32 -256.2)">
	<stop  offset="0" style="stop-color:#010101"/>
	<stop  offset="1" style="stop-color:#A9BDBF"/>
</linearGradient>
<path style="fill:url(#SVGID_00000092455653199712411790000005490801273314922416_);" d="M258.9,276.2c15.7,0,28.5-12.7,28.5-28.5
	c0-15.7-12.7-28.5-28.5-28.5c-15.7,0-28.5,12.7-28.5,28.5c0,0,0,0,0,0C230.5,263.4,243.2,276.2,258.9,276.2L258.9,276.2z"/>
<linearGradient id="SVGID_00000149367301035023460920000005362124100745364102_" gradientUnits="userSpaceOnUse" x1="294.1397" y1="523.4606" x2="295.9797" y2="491.6505" gradientTransform="matrix(1 0 0 1 -36.32 -256.2)">
	<stop  offset="0" style="stop-color:#8EA5A8"/>
	<stop  offset="1" style="stop-color:#CFDCDE"/>
</linearGradient>
<path style="fill:url(#SVGID_00000149367301035023460920000005362124100745364102_);" d="M258.9,270.2c12.4,0,22.4-10,22.5-22.4
	c0-12.4-10-22.4-22.4-22.5c-12.4,0-22.4,10-22.5,22.4c0,0,0,0,0,0C236.5,260.1,246.6,270.2,258.9,270.2z"/>
<path class="st10" d="M258.9,252c2.3,0,4.2-1.9,4.2-4.2c0-2.3-1.9-4.2-4.2-4.2c-2.3,0-4.2,1.9-4.2,4.2c0,0,0,0,0,0
	C254.7,250.1,256.6,252,258.9,252z"/>
<linearGradient id="SVGID_00000160875499605745434900000008624813762299613617_" gradientUnits="userSpaceOnUse" x1="315.705" y1="309.49" x2="315.705" y2="345.19" gradientTransform="matrix(1 0 0 1 -36.32 -256.2)">
	<stop  offset="0.25" style="stop-color:#45B7E9"/>
	<stop  offset="1" style="stop-color:#495BA9"/>
</linearGradient>
<path style="fill:url(#SVGID_00000160875499605745434900000008624813762299613617_);" d="M382.2,53.9H176.6v18.3h205.6V53.9z"/>
<linearGradient id="SVGID_00000083774368277353199220000006371826732927095469_" gradientUnits="userSpaceOnUse" x1="378.044" y1="290.3401" x2="376.714" y2="238.4801" gradientTransform="matrix(1 0 0 1 -36.32 -256.2)">
	<stop  offset="0" style="stop-color:#3A2512"/>
	<stop  offset="1" style="stop-color:#F99D1C"/>
</linearGradient>
<path style="fill:url(#SVGID_00000083774368277353199220000006371826732927095469_);" d="M355.9,12.4h-29.8c-2.3,0-4.2-2.7-4.2-6.1
	s1.9-6.2,4.2-6.2h29.8c2.3,0,4.2,2.7,4.2,6.2S358.4,12.4,355.9,12.4z"/>
<path class="st23" d="M326.1,0c-2.3,0-4.2,2.7-4.2,6.2s1.9,6.1,4.2,6.1s4.2-2.7,4.2-6.1S328.4,0,326.1,0z"/>
<linearGradient id="SVGID_00000049941226269722027580000003525863936047241658_" gradientUnits="userSpaceOnUse" x1="287.2023" y1="489.139" x2="318.1823" y2="551.889" gradientTransform="matrix(1 0 0 1 -36.32 -256.2)">
	<stop  offset="0" style="stop-color:#010101"/>
	<stop  offset="1" style="stop-color:#A9BDBF"/>
</linearGradient>
<path style="fill:url(#SVGID_00000049941226269722027580000003525863936047241658_);" d="M286.3,296.8l-23.4-50.5
	c-0.4-1.1-1.2-2.1-2.3-2.6c-2.1-1-4.6,0-5.6,2.1c0,0,0,0.1,0,0.1c-0.5,1.3-0.4,2.8,0.3,4l23.4,50.3L286.3,296.8z"/>
<linearGradient id="SVGID_00000145051995625002834740000018258519170215390650_" gradientUnits="userSpaceOnUse" x1="319.9531" y1="570.1306" x2="317.2331" y2="534.5106" gradientTransform="matrix(1 0 0 1 -36.32 -256.2)">
	<stop  offset="0" style="stop-color:#010101"/>
	<stop  offset="1" style="stop-color:#A9BDBF"/>
</linearGradient>
<path style="fill:url(#SVGID_00000145051995625002834740000018258519170215390650_);" d="M292,302.8l-19,0.1c-2.4,0-4.3-1.9-4.4-4.2
	s1.9-4.3,4.2-4.4l19-0.1c2.4,0,4.3,1.9,4.4,4.2C296.3,300.8,294.4,302.8,292,302.8C292.1,302.8,292.1,302.8,292,302.8z"/>
<linearGradient id="SVGID_00000137133712158389442480000015780669985775334280_" gradientUnits="userSpaceOnUse" x1="319.378" y1="557.2105" x2="312.278" y2="528.7105" gradientTransform="matrix(1 0 0 1 -36.32 -256.2)">
	<stop  offset="0" style="stop-color:#8EA5A8"/>
	<stop  offset="1" style="stop-color:#CFDCDE"/>
</linearGradient>
<path style="fill:url(#SVGID_00000137133712158389442480000015780669985775334280_);" d="M282.5,301.1c1.4,0,2.5-1.1,2.5-2.5
	c0-1.4-1.1-2.5-2.5-2.5c-1.4,0-2.5,1.1-2.5,2.5S281.1,301.1,282.5,301.1L282.5,301.1z"/>
<linearGradient id="SVGID_00000136411604569662616810000000511058274365711515_" gradientUnits="userSpaceOnUse" x1="151.35" y1="520.02" x2="151.35" y2="454.54" gradientTransform="matrix(1 0 0 1 -36.32 -256.2)">
	<stop  offset="0" style="stop-color:#8EA5A8"/>
	<stop  offset="1" style="stop-color:#CFDCDE"/>
</linearGradient>
<path style="fill:url(#SVGID_00000136411604569662616810000000511058274365711515_);" d="M115,223.5c1.6,0,2.9-1.3,2.9-2.9
	c0-1.6-1.3-2.9-2.9-2.9c-1.6,0-2.9,1.3-2.9,2.9C112.2,222.2,113.4,223.5,115,223.5C115,223.5,115,223.5,115,223.5z"/>
<linearGradient id="SVGID_00000038391388738827299650000008268625273790438313_" gradientUnits="userSpaceOnUse" x1="460.64" y1="520.02" x2="460.64" y2="454.54" gradientTransform="matrix(1 0 0 1 -36.32 -256.2)">
	<stop  offset="0" style="stop-color:#8EA5A8"/>
	<stop  offset="1" style="stop-color:#CFDCDE"/>
</linearGradient>
<path style="fill:url(#SVGID_00000038391388738827299650000008268625273790438313_);" d="M424.3,223.8c1.7,0,3.2-1.4,3.2-3.1
	c0-1.7-1.4-3.2-3.1-3.2c-1.7,0-3.2,1.4-3.2,3.1c0,0,0,0,0,0C421.2,222.4,422.6,223.8,424.3,223.8z"/>
<!-- rear wheel -->
<g class="rearWheel">
	<path class="st29" d="M115,220.6l90.1-0.7v1.4L115,220.6z"/>
	<path class="st29" d="M24.8,220l90.3,0.7l-90.3,0.7L24.8,220z"/>
	<path class="st29" d="M115,220.6l0.7,90.3h-1.4L115,220.6z"/>
	<path class="st29" d="M115.7,130.4l-0.7,90.3l-0.7-90.3H115.7z"/>
	<path class="st29" d="M115,220.6l64.3,63.3l-1,1L115,220.6z"/>
	<path class="st29" d="M51.7,156.3l63.3,64.3l-64.4-63.3L51.7,156.3z"/>
	<path class="st29" d="M115,220.6l-63.4,64.3l-1.1-1L115,220.6z"/>
	<path class="st29" d="M179.3,157.3L115,220.6l63.3-64.3L179.3,157.3z"/>
	<path class="st29" d="M115,220.6l83-35.1l0.5,1.2L115,220.6z"/>
	<path class="st29" d="M31.3,254.6l83.7-33.9l-83.2,35.2L31.3,254.6z"/>
	<path class="st29" d="M115,220.6l35.2,83l-1.4,0.5L115,220.6z"/>
	<path class="st29" d="M81.1,136.9l33.9,83.7l-35.3-83.2L81.1,136.9z"/>
	<path class="st29" d="M115,220.6l83.6,33.9l-0.5,1.2L115,220.6z"/>
	<path class="st29" d="M31.9,185.5l83.2,35.1l-83.7-33.9L31.9,185.5z"/>
	<path class="st29" d="M115,220.6l-33.9,83.6l-1.4-0.4L115,220.6z"/>
	<path class="st29" d="M150.2,137.5L115,220.6l33.8-83.7L150.2,137.5z"/>
	<path class="st29" d="M115,220.6l88.4-18.3l0.3,1.4L115,220.6z"/>
	<path class="st29" d="M26.3,237.6l88.8-17l-88.5,18.2L26.3,237.6z"/>
	<path class="st29" d="M115,220.6l18.2,88.4l-1.4,0.3L115,220.6z"/>
	<path class="st29" d="M98.1,132l17,88.6l-18.4-88.4L98.1,132z"/>
	<path class="st29" d="M115,220.6l75.4,49.5l-0.8,1.2L115,220.6z"/>
	<path class="st29" d="M40.3,169.9l74.7,50.8L39.5,171L40.3,169.9z"/>
	<path class="st29" d="M115,220.6L65.4,296l-1.1-0.7L115,220.6z"/>
	<path class="st29" d="M165.7,145.9l-50.6,74.7l49.5-75.4L165.7,145.9z"/>
	<path class="st29" d="M115,220.6l74.5-50.8l0.8,1.1L115,220.6z"/>
	<path class="st29" d="M39.5,270.2l75.5-49.5l-74.7,50.8L39.5,270.2z"/>
	<path class="st29" d="M115,220.6l50.6,74.7l-1.1,0.7L115,220.6z"/>
	<path class="st29" d="M65.4,145.1l49.7,75.5L64.3,146L65.4,145.1z"/>
	<path class="st29" d="M115,220.6l88.6,17l-0.3,1.2L115,220.6z"/>
	<path class="st29" d="M26.5,202.3l88.5,18.3l-88.8-17L26.5,202.3z"/>
	<path class="st29" d="M115,220.6l-17,88.6l-1.4-0.3L115,220.6z"/>
	<path class="st29" d="M133.2,132.3L115,220.6l16.8-88.6L133.2,132.3z"/>
	<path class="st30" d="M115,105.6c-63.5,0-115,51.5-115,115s51.5,115,115,115s115-51.5,115-115l0,0C230,157.1,178.6,105.6,115,105.6
		z M115,314.5c-51.8,0-93.8-42-93.8-93.8s42-93.8,93.8-93.8s93.8,42,93.8,93.8l0,0C208.9,272.4,166.9,314.5,115,314.5
		C115.1,314.5,115.1,314.5,115,314.5L115,314.5z"/>
	<path class="st31" d="M115,121.1c-54.9,0-99.5,44.5-99.5,99.4c0,54.9,44.5,99.5,99.4,99.5c54.9,0,99.5-44.5,99.5-99.4c0,0,0,0,0,0
		C214.5,165.6,170,121.1,115,121.1z M115,314.9c-52.1,0-94.2-42.2-94.2-94.2S63,126.4,115,126.4s94.3,42.2,94.3,94.2c0,0,0,0,0,0
		C209.3,272.7,167.1,314.9,115,314.9z"/>
	
		<linearGradient id="SVGID_00000080896493063664978240000006526805665226783384_" gradientUnits="userSpaceOnUse" x1="151.36" y1="386.47" x2="151.36" y2="633.15" gradientTransform="matrix(1 0 0 1 -36.32 -256.2)">
		<stop  offset="0" style="stop-color:#8EA5A8"/>
		<stop  offset="1" style="stop-color:#DDE7E7"/>
	</linearGradient>
	<path style="fill:url(#SVGID_00000080896493063664978240000006526805665226783384_);" d="M115,125.4c-52.6,0-95.2,42.6-95.2,95.2
		s42.6,95.2,95.2,95.2s95.2-42.6,95.2-95.2l0,0C210.2,168.1,167.6,125.5,115,125.4z M115,310.9c-49.9,0-90.3-40.4-90.3-90.3
		s40.4-90.3,90.3-90.3s90.3,40.4,90.3,90.3c0,0,0,0,0,0C205.2,270.4,164.8,310.9,115,310.9z"/>
</g>
<!-- front wheel -->
<g>
	<path class="st30" d="M424.3,105.6c-63.5,0-115,51.5-115,115s51.5,115,115,115s115-51.5,115-115l0,0
		C539.3,157.1,487.8,105.6,424.3,105.6z M424.3,314.5c-51.8,0-93.8-42-93.8-93.8s42-93.8,93.8-93.8s93.8,42,93.8,93.8c0,0,0,0,0,0
		C518.2,272.4,476.2,314.5,424.3,314.5C424.3,314.5,424.3,314.5,424.3,314.5L424.3,314.5z"/>
	<path class="st31" d="M424.3,121.1c-54.9,0-99.5,44.5-99.5,99.4s44.5,99.5,99.4,99.5c54.9,0,99.5-44.5,99.5-99.4c0,0,0,0,0,0
		C523.8,165.6,479.2,121.1,424.3,121.1z M424.3,314.9c-52.1,0-94.3-42.2-94.3-94.2s42.2-94.3,94.2-94.3s94.3,42.2,94.3,94.2
		c0,0,0,0,0,0C518.6,272.7,476.4,314.9,424.3,314.9z"/>
	<path class="st29" d="M424.3,220.6l90.3-0.7v1.4L424.3,220.6z"/>
	<path class="st29" d="M334,220l90.3,0.7l-90.3,0.7V220z"/>
	<path class="st29" d="M424.3,220.6l0.7,90.3h-1.3L424.3,220.6z"/>
	<path class="st29" d="M425,130.4l-0.7,90.3l-0.6-90.3H425z"/>
	<path class="st29" d="M424.3,220.6l64.3,63.3l-1,1L424.3,220.6z"/>
	<path class="st29" d="M361,156.3l63.3,64.3L360,157.3L361,156.3z"/>
	<path class="st29" d="M424.3,220.6L361,284.9l-1-1L424.3,220.6z"/>
	<path class="st29" d="M488.6,157.3l-64.3,63.3l63.4-64.3L488.6,157.3z"/>
	<path class="st29" d="M424.3,220.6l83.2-35.1l0.4,1.2L424.3,220.6z"/>
	<path class="st29" d="M340.6,254.6l83.7-33.9l-83.2,35.2L340.6,254.6z"/>
	<path class="st29" d="M424.3,220.6l35.1,83l-1.2,0.5L424.3,220.6z"/>
	<path class="st29" d="M390.4,136.9l33.9,83.7l-35.1-83.2L390.4,136.9z"/>
	<path class="st29" d="M424.3,220.6l83.6,33.9l-0.4,1.2L424.3,220.6z"/>
	<path class="st29" d="M341.1,185.5l83.2,35.1l-83.7-33.9L341.1,185.5z"/>
	<path class="st29" d="M424.3,220.6l-33.9,83.6l-1.2-0.4L424.3,220.6z"/>
	<path class="st29" d="M459.5,137.5l-35.1,83.2l33.9-83.7L459.5,137.5z"/>
	<path class="st29" d="M424.3,220.6l88.4-18.3l0.3,1.4L424.3,220.6z"/>
	<path class="st29" d="M335.7,237.6l88.6-17l-88.4,18.2L335.7,237.6z"/>
	<path class="st29" d="M424.3,220.6l18.4,88.4l-1.4,0.3L424.3,220.6z"/>
	<path class="st29" d="M407.3,132l17,88.6L406,132.3L407.3,132z"/>
	<path class="st29" d="M424.3,220.6l75.4,49.5l-0.7,1.2L424.3,220.6z"/>
	<path class="st29" d="M349.6,169.9l74.7,50.8L348.9,171L349.6,169.9z"/>
	<path class="st29" d="M424.3,220.6L374.8,296l-1.2-0.7L424.3,220.6z"/>
	<path class="st29" d="M475.1,145.9l-50.8,74.7l49.5-75.4L475.1,145.9z"/>
	<path class="st29" d="M424.3,220.6l74.7-50.8l0.7,1.1L424.3,220.6z"/>
	<path class="st29" d="M348.9,270.2l75.4-49.5l-74.7,50.7L348.9,270.2z"/>
	<path class="st29" d="M424.3,220.6l50.8,74.7l-1.2,0.7L424.3,220.6z"/>
	<path class="st29" d="M374.8,145.1l49.5,75.5L373.6,146L374.8,145.1z"/>
	<path class="st29" d="M424.3,220.6l88.6,17l-0.3,1.2L424.3,220.6z"/>
	<path class="st29" d="M335.9,202.3l88.4,18.3l-88.6-17L335.9,202.3z"/>
	<path class="st29" d="M424.3,220.6l-17,88.6L406,309L424.3,220.6z"/>
	<path class="st29" d="M442.7,132.3l-18.3,88.4l17-88.6L442.7,132.3z"/>
	<path class="st31" d="M424.3,121.1c-54.9,0-99.5,44.5-99.5,99.4s44.5,99.5,99.4,99.5c54.9,0,99.5-44.5,99.5-99.4c0,0,0,0,0,0
		C523.8,165.6,479.2,121.1,424.3,121.1z M424.3,314.9c-52.1,0-94.3-42.2-94.3-94.2s42.2-94.3,94.2-94.3s94.3,42.2,94.3,94.2
		c0,0,0,0,0,0C518.6,272.7,476.4,314.9,424.3,314.9z"/>
	
		<linearGradient id="SVGID_00000047751434504970876200000000788631654343746233_" gradientUnits="userSpaceOnUse" x1="460.63" y1="386.47" x2="460.63" y2="633.15" gradientTransform="matrix(1 0 0 1 -36.32 -256.2)">
		<stop  offset="0" style="stop-color:#8EA5A8"/>
		<stop  offset="1" style="stop-color:#DDE7E7"/>
	</linearGradient>
	<path style="fill:url(#SVGID_00000047751434504970876200000000788631654343746233_);" d="M424.3,125.4c-52.6,0-95.2,42.6-95.2,95.2
		s42.6,95.2,95.2,95.2s95.2-42.6,95.2-95.2C519.5,168.1,476.9,125.5,424.3,125.4z M424.3,310.9c-49.9,0-90.3-40.4-90.3-90.3
		s40.4-90.3,90.3-90.3s90.3,40.4,90.3,90.3c0,0,0,0,0,0C514.6,270.5,474.2,310.9,424.3,310.9z"/>
</g>
</svg>
