<svg xmlns="http://www.w3.org/2000/svg" xmlns:xlink="http://www.w3.org/1999/xlink" viewBox="0 0 330.16 219.68"><defs><style>.cls-1{fill:#f69163;}.cls-2{fill:url(#linear-gradient);}.cls-3{fill:url(#linear-gradient-2);}.cls-4{fill:#4b7bbe;}.cls-5{fill:url(#linear-gradient-3);}.cls-6{fill:url(#linear-gradient-4);}.cls-7{fill:#f2f2f2;}.cls-8{fill:url(#linear-gradient-5);}.cls-9{fill:url(#linear-gradient-6);}.cls-10{fill:url(#linear-gradient-7);}.cls-11{fill:url(#linear-gradient-8);}.cls-12{fill:url(#linear-gradient-9);}</style><linearGradient id="linear-gradient" x1="222.7" y1="123.82" x2="249.56" y2="185.08" gradientTransform="matrix(1, 0, 0, -1, 0, 204)" gradientUnits="userSpaceOnUse"><stop offset="0.25" stop-color="#45b7e9"/><stop offset="1" stop-color="#495ba9"/></linearGradient><linearGradient id="linear-gradient-2" x1="122.93" y1="117.54" x2="108.63" y2="211.86" xlink:href="#linear-gradient"/><linearGradient id="linear-gradient-3" x1="69.5" y1="159.05" x2="74.11" y2="186.58" gradientTransform="matrix(1, 0, 0, -1, 0, 204)" gradientUnits="userSpaceOnUse"><stop offset="0" stop-color="#bd2a26"/><stop offset="1" stop-color="#f58020"/></linearGradient><linearGradient id="linear-gradient-4" x1="281.5" y1="185.13" x2="281.5" y2="168.24" gradientTransform="matrix(1, 0, 0, -1, 0, 204)" gradientUnits="userSpaceOnUse"><stop offset="0" stop-color="#fff"/><stop offset="0.18" stop-color="#f9fbfb"/><stop offset="0.44" stop-color="#e6ebeb"/><stop offset="0.74" stop-color="#cad6d6"/><stop offset="1" stop-color="#a9bdbf"/></linearGradient><linearGradient id="linear-gradient-5" x1="46.02" y1="-63.18" x2="206.7" y2="233.46" gradientTransform="matrix(1, 0, 0, -1, 0, 204)" gradientUnits="userSpaceOnUse"><stop offset="0.25" stop-color="#45b7e9"/><stop offset="0.36" stop-color="#49afe3"/><stop offset="0.52" stop-color="#4e9ad4"/><stop offset="0.7" stop-color="#4a7abd"/><stop offset="0.9" stop-color="#4962ad"/><stop offset="1" stop-color="#495ba9"/></linearGradient><linearGradient id="linear-gradient-6" x1="267.46" y1="154.23" x2="341.33" y2="-50.27" xlink:href="#linear-gradient"/><linearGradient id="linear-gradient-7" x1="254.8" y1="196.59" x2="255.94" y2="171.74" xlink:href="#linear-gradient"/><linearGradient id="linear-gradient-8" x1="264.84" y1="151.83" x2="260.74" y2="173.37" xlink:href="#linear-gradient"/><linearGradient id="linear-gradient-9" x1="177.06" y1="187.51" x2="177.06" y2="151.81" xlink:href="#linear-gradient"/></defs><g id="Layer_2" data-name="Layer 2"><g id="Layer_1-2" data-name="Layer 1"><path class="cls-1" d="M156.48,213.66a2.6,2.6,0,1,0-2.6-2.6A2.6,2.6,0,0,0,156.48,213.66Z"/><path class="cls-2" d="M159.35,214.89,146.5,203.67,254.83,16.55,267.69,27.9Z"/><path class="cls-3" d="M148.14,206.82,91.1,21.75,105.87,19l56.9,185.07Z"/><path class="cls-1" d="M12.72,189.58A5.75,5.75,0,1,0,7,183.84,5.74,5.74,0,0,0,12.72,189.58Z"/><path class="cls-4" d="M12.72,187a3.15,3.15,0,1,0-3.15-3.14A3.15,3.15,0,0,0,12.72,187Z"/><path class="cls-5" d="M74.27,17.1H71V35.43h3.28Z"/><path class="cls-6" d="M283.15,17.1h-3.29V35.43h3.29Z"/><path class="cls-7" d="M156.62,214.88a4,4,0,1,1,4-4A4,4,0,0,1,156.62,214.88Zm0-7.38a3.56,3.56,0,1,0,3.55,3.55A3.62,3.62,0,0,0,156.62,207.5Z"/><path class="cls-8" d="M24.76,179.74c-4.52-2.73-5.2-4.51-5.2-4.92v-.14l.55-.69,1.09-2.87L108.88,25.86,96.57,16.28,4,169.35c-3.15,3.28-3.83,10-4,12.85,0,7.94,6.57,11.08,10.12,11.63l157,25.85,3-16.41Z"/><path class="cls-9" d="M328.14,179.87l-2.73-2.6c-.69-.82-.82-1.09-.82-1.23a11.45,11.45,0,0,0-1.37-2.88c-7.39-11.9-20.65-34-26.13-49.37-2.18-6.16-5.06-18.47-8.2-31.47-4.24-17.78-9-37.88-13.41-48.42l-.68-1.78L256.88,48l.68,2.05c3.56,9.85,9,28.72,13.82,45.41,3.28,11.35,6.43,22,8.34,28,3.7,11.08,21.75,42.68,30.51,58l1.23,2.19a15.42,15.42,0,0,0,9.57,7.11,13.16,13.16,0,0,0,2.46.27A5.94,5.94,0,0,0,325,191a7,7,0,0,0,5.06-5.34A6.62,6.62,0,0,0,328.14,179.87Z"/><path class="cls-10" d="M260.71,0,240.46,5.88,248.26,26h1.37a101.32,101.32,0,0,1,17.09,1.5L270,28Z"/><path class="cls-11" d="M268.64,23.66l-1.23-.13A124.29,124.29,0,0,0,249.63,22h-3l11.63,30.09,17.92-6Z"/><path class="cls-4" d="M156.62,215.16a4.24,4.24,0,1,0-4.24-4.24A4.24,4.24,0,0,0,156.62,215.16Z"/><path class="cls-12" d="M279.86,17.1H74.27V35.43H279.86Z"/></g></g></svg>