<svg xmlns="http://www.w3.org/2000/svg" xmlns:xlink="http://www.w3.org/1999/xlink" viewBox="0 0 57.18 45.98"><defs><style>.cls-1{fill:#2581c4;}.cls-2{fill:url(#linear-gradient);}.cls-3{fill:#010101;}</style><linearGradient id="linear-gradient" x1="19.86" y1="243.46" x2="18.53" y2="295.31" gradientTransform="matrix(1, 0, 0, -1, 0, 277.59)" gradientUnits="userSpaceOnUse"><stop offset="0" stop-color="#3a2512"/><stop offset="1" stop-color="#f99d1c"/></linearGradient></defs><g id="Layer_2" data-name="Layer 2"><g id="Layer_1-2" data-name="Layer 1"><path class="cls-1" d="M34.06,45.55a4.84,4.84,0,0,1-4.51-3.15l-9-26.81s-.82-3,3.42-4.24c4-1.09,5.47,1.23,5.47,1.23l9,26.81a4.86,4.86,0,0,1-3,6C35.15,45.41,34.61,45.55,34.06,45.55Z"/><path class="cls-1" d="M52.94,10.54H34.2a4.24,4.24,0,0,1,0-8.48H52.94a4.24,4.24,0,1,1,0,8.48Z"/><path class="cls-1" d="M25.16,25.31S23,38.44,25.71,44,37.2,41.31,37.2,41.31l2.6-2.05L30.5,23.94Z"/><path class="cls-1" d="M39.94,23.93h-.41A1.9,1.9,0,0,1,38,21.61c1.1-5.47,6.16-10.26,9.71-13.27L46,8.07a1.89,1.89,0,0,1-1.64-2.19A1.88,1.88,0,0,1,46.5,4.24l6.71,1A1.9,1.9,0,0,1,54.85,6.7a1.85,1.85,0,0,1-1,2.05c-.14,0-10.67,6.7-12,13.54A1.8,1.8,0,0,1,39.94,23.93Z"/><path class="cls-1" d="M25.71,20.11a3.93,3.93,0,0,1-3.55-2.19,3.89,3.89,0,0,1,1.78-5.2l20.51-10a3.88,3.88,0,1,1,3.42,7l-20.51,10A3.72,3.72,0,0,1,25.71,20.11Z"/><path class="cls-2" d="M34.06,12.45H4.24C1.91,12.45,0,9.72,0,6.3S1.91.14,4.24.14H34.06c2.33,0,4.24,2.74,4.24,6.16S36.52,12.45,34.06,12.45Z"/><path class="cls-3" d="M4.24,0C1.91,0,0,2.74,0,6.16s1.91,6.15,4.24,6.15S8.48,9.57,8.48,6.16,6.57,0,4.24,0Z"/></g></g></svg>