<svg xmlns="http://www.w3.org/2000/svg" xmlns:xlink="http://www.w3.org/1999/xlink" viewBox="0 0 74.82 110.24"><defs><style>.cls-1{fill:url(#linear-gradient);}.cls-2{fill:url(#linear-gradient-2);}.cls-3{fill:url(#linear-gradient-3);}.cls-4{fill:url(#linear-gradient-4);}.cls-5{fill:url(#linear-gradient-5);}.cls-6{fill:url(#linear-gradient-6);}.cls-7{fill:url(#linear-gradient-7);}.cls-8{fill:url(#linear-gradient-8);}</style><linearGradient id="linear-gradient" x1="24.59" y1="-88.22" x2="6.12" y2="-129.25" gradientTransform="matrix(1, 0, 0, -1, 0, -107.88)" gradientUnits="userSpaceOnUse"><stop offset="0" stop-color="#010101"/><stop offset="1" stop-color="#a9bdbf"/></linearGradient><linearGradient id="linear-gradient-2" x1="30.61" y1="-150.23" x2="10.78" y2="-105.09" xlink:href="#linear-gradient"/><linearGradient id="linear-gradient-3" x1="13.74" y1="-115.77" x2="6.64" y2="-87.27" gradientTransform="matrix(1, 0, 0, -1, 0, -107.88)" gradientUnits="userSpaceOnUse"><stop offset="0" stop-color="#8ea5a8"/><stop offset="1" stop-color="#cfdcde"/></linearGradient><linearGradient id="linear-gradient-4" x1="-32.34" y1="-307" x2="67.06" y2="-101.82" xlink:href="#linear-gradient"/><linearGradient id="linear-gradient-5" x1="36.35" y1="-182.41" x2="38.19" y2="-150.59" xlink:href="#linear-gradient-3"/><linearGradient id="linear-gradient-6" x1="29.4" y1="-148.09" x2="60.38" y2="-210.84" xlink:href="#linear-gradient"/><linearGradient id="linear-gradient-7" x1="62.17" y1="-229.07" x2="59.46" y2="-193.45" xlink:href="#linear-gradient"/><linearGradient id="linear-gradient-8" x1="61.6" y1="-216.15" x2="54.5" y2="-187.65" xlink:href="#linear-gradient-3"/></defs><g id="Layer_2" data-name="Layer 2"><g id="Layer_1-2" data-name="Layer 1"><path class="cls-1" d="M4.24,0h19a4.38,4.38,0,0,1,4.38,4.24,4.38,4.38,0,0,1-4.24,4.38h-19A4.38,4.38,0,0,1,0,4.38,4.29,4.29,0,0,1,4.24,0Z"/><path class="cls-2" d="M32.7,53.75,9.85,6.83a3.55,3.55,0,0,1,1.78-4.92,3.54,3.54,0,0,1,4.92,1.78L39.4,50.61Z"/><path class="cls-3" d="M13.13,7.93a2.47,2.47,0,1,0-2.46-2.46A2.46,2.46,0,0,0,13.13,7.93Z"/><path class="cls-4" d="M37.48,83.44A28.46,28.46,0,1,0,9,55,28.46,28.46,0,0,0,37.48,83.44Z"/><path class="cls-5" d="M37.48,77.42A22.44,22.44,0,1,0,15,55,22.44,22.44,0,0,0,37.48,77.42Z"/><path class="cls-6" d="M64.83,104.09,41.44,53.62A4.76,4.76,0,0,0,39.12,51a4.21,4.21,0,0,0-5.61,2.19,4.45,4.45,0,0,0,.27,4l23.39,50.34Z"/><path class="cls-7" d="M70.58,110.11l-19,.13a4.31,4.31,0,1,1-.14-8.61l19-.14a4.38,4.38,0,0,1,4.38,4.24A4.29,4.29,0,0,1,70.58,110.11Z"/><path class="cls-8" d="M61,108.33a2.46,2.46,0,1,0-2.46-2.46A2.46,2.46,0,0,0,61,108.33Z"/></g></g></svg>