<svg xmlns="http://www.w3.org/2000/svg" xmlns:xlink="http://www.w3.org/1999/xlink" viewBox="0 0 92.74 50.61"><defs><style>.cls-1{fill:#2581c4;}.cls-2{fill:url(#linear-gradient);}</style><linearGradient id="linear-gradient" x1="48.96" y1="187.47" x2="44.58" y2="295.71" gradientTransform="matrix(1, 0, 0, -1, 0, 259.27)" gradientUnits="userSpaceOnUse"><stop offset="0" stop-color="#3a2512"/><stop offset="1" stop-color="#f99d1c"/></linearGradient></defs><g id="Layer_2" data-name="Layer 2"><g id="Layer_1-2" data-name="Layer 1"><path class="cls-1" d="M9.85,10.67a7.66,7.66,0,0,0-3.29,6.7c0,2.06,4.52,6.71,10,6.71s11.35-2.74,12.31-8.21S9.85,10.67,9.85,10.67Z"/><path class="cls-1" d="M37.2,45.69l-9-35.15,14.37-2.6L53.62,50.61Z"/><path class="cls-2" d="M0,7.8C0,4.79,1.23,0,6.84,0,27,0,28.73,1.5,34.74,1.5,60.46,1.5,66.89,0,79.61,0c6.56,0,12.31,2.33,13.13,7.8,0,0-14.23,2.73-20.38,7s-18.47,11-29.41,11S22.43,14.91,12.17,12.86C2.19,10.81,0,7.8,0,7.8Z"/></g></g></svg>