<svg xmlns="http://www.w3.org/2000/svg" xmlns:xlink="http://www.w3.org/1999/xlink" viewBox="0 0 230.07 230.07"><defs><style>.cls-1{fill:#939fa1;}.cls-2{fill:#414042;}.cls-3{fill:#febf10;}.cls-4{fill:url(#linear-gradient);}.cls-5{fill:url(#linear-gradient-2);}</style><linearGradient id="linear-gradient" x1="115.04" y1="41.73" x2="115.04" y2="-204.95" gradientTransform="matrix(1, 0, 0, -1, 0, 66.41)" gradientUnits="userSpaceOnUse"><stop offset="0" stop-color="#8ea5a8"/><stop offset="1" stop-color="#dde7e7"/></linearGradient><linearGradient id="linear-gradient-2" x1="115.03" y1="-91.81" x2="115.03" y2="-26.33" gradientTransform="matrix(1, 0, 0, -1, 0, 66.41)" gradientUnits="userSpaceOnUse"><stop offset="0" stop-color="#8ea5a8"/><stop offset="1" stop-color="#cfdcde"/></linearGradient></defs><g id="Layer_2" data-name="Layer 2"><g id="Layer_1-2" data-name="Layer 1"><path class="cls-1" d="M115,115.05l90.14-.68v1.37Z"/><path class="cls-1" d="M24.76,114.37l90.28.68-90.28.69Z"/><path class="cls-1" d="M115,115.05l.69,90.28h-1.37Z"/><path class="cls-1" d="M115.73,24.77,115,115.05l-.68-90.28Z"/><path class="cls-1" d="M115,115.05l64.28,63.33-.95,1Z"/><path class="cls-1" d="M51.7,50.75,115,115,50.61,51.71Z"/><path class="cls-1" d="M115,115.05,51.7,179.34l-1.09-1Z"/><path class="cls-1" d="M179.32,51.71,115,115l63.33-64.29Z"/><path class="cls-1" d="M115,115.06l83-35.16.55,1.23Z"/><path class="cls-1" d="M31.32,149,115,115.05,31.87,150.2Z"/><path class="cls-1" d="M115,115.05l35.15,83-1.37.54Z"/><path class="cls-1" d="M81.11,31.34,115,115.05,79.74,31.88Z"/><path class="cls-1" d="M115,115.05,198.61,149l-.55,1.23Z"/><path class="cls-1" d="M31.87,79.9,115,115.06,31.32,81.13Z"/><path class="cls-1" d="M115,115.05,81.11,198.62l-1.37-.41Z"/><path class="cls-1" d="M150.19,31.88,115,115.05l33.78-83.71Z"/><path class="cls-1" d="M115,115l88.37-18.33.27,1.37Z"/><path class="cls-1" d="M26.26,132l88.78-17-88.5,18.19Z"/><path class="cls-1" d="M115,115.05l18.19,88.36-1.36.27Z"/><path class="cls-1" d="M98.08,26.4,115,115,96.71,26.68Z"/><path class="cls-1" d="M115,115.05l75.37,49.51-.82,1.24Z"/><path class="cls-1" d="M40.35,64.3,115,115,39.53,65.39Z"/><path class="cls-1" d="M115,115.05,65.39,190.42l-1.1-.69Z"/><path class="cls-1" d="M165.65,40.35,115,115l49.52-75.37Z"/><path class="cls-1" d="M115,115,189.59,64.3l.82,1.09Z"/><path class="cls-1" d="M39.53,164.56,115,115.05,40.35,165.8Z"/><path class="cls-1" d="M115,115.05l50.61,74.68-1.09.69Z"/><path class="cls-1" d="M65.39,39.53,115,115,64.29,40.35Z"/><path class="cls-1" d="M115,115.05l88.64,17-.27,1.23Z"/><path class="cls-1" d="M26.54,96.71,115,115l-88.78-17Z"/><path class="cls-1" d="M115,115.05l-17,88.63-1.37-.27Z"/><path class="cls-1" d="M133.23,26.68,115,115,131.87,26.4Z"/><path class="cls-2" d="M115,0a115,115,0,1,0,115,115A115,115,0,0,0,115,0Zm0,208.87A93.84,93.84,0,1,1,208.87,115,93.81,93.81,0,0,1,115,208.87Z"/><path class="cls-3" d="M115,15.46a99.45,99.45,0,1,0,99.44,99.45A99.46,99.46,0,0,0,115,15.46Zm0,193.83A94.25,94.25,0,1,1,209.28,115,94.25,94.25,0,0,1,115,209.29Z"/><path class="cls-4" d="M115,19.85a95.2,95.2,0,1,0,95.2,95.2A95.27,95.27,0,0,0,115,19.85Zm0,185.48a90.28,90.28,0,1,1,90.28-90.28C205.18,164.84,164.83,205.33,115,205.33Z"/><path class="cls-5" d="M115,117.92a2.88,2.88,0,1,0-2.87-2.88A2.88,2.88,0,0,0,115,117.92Z"/></g></g></svg>