<svg xmlns="http://www.w3.org/2000/svg" xmlns:xlink="http://www.w3.org/1999/xlink" viewBox="0 0 292.91 292.9"><defs><style>.cls-1{fill:url(#radial-gradient);}.cls-2{fill:url(#linear-gradient);}.cls-3{fill:url(#linear-gradient-2);}.cls-4{fill:url(#linear-gradient-3);}.cls-5{fill:url(#linear-gradient-4);}.cls-6{fill:url(#linear-gradient-5);}.cls-7{fill:url(#linear-gradient-6);}.cls-8{fill:url(#linear-gradient-7);}</style><radialGradient id="radial-gradient" cx="-194.03" cy="299.77" r="19.31" gradientTransform="matrix(9.09, -8.86, -1.34, -1.38, 2316.02, -1165.89)" gradientUnits="userSpaceOnUse"><stop offset="0.49" stop-color="#fff"/><stop offset="0.59" stop-color="#f9fbfb"/><stop offset="0.72" stop-color="#e6ebeb"/><stop offset="0.87" stop-color="#cad6d6"/><stop offset="1" stop-color="#a9bdbf"/></radialGradient><linearGradient id="linear-gradient" x1="131.49" y1="182.81" x2="161.18" y2="153.12" gradientTransform="matrix(1, 0, 0, -1, 0, 317.39)" gradientUnits="userSpaceOnUse"><stop offset="0" stop-color="#fff" stop-opacity="0"/><stop offset="0.19" stop-color="#f7f8f9" stop-opacity="0.09"/><stop offset="0.48" stop-color="#e0e6e6" stop-opacity="0.24"/><stop offset="0.85" stop-color="#bac9cb" stop-opacity="0.43"/><stop offset="1" stop-color="#a9bdbf" stop-opacity="0.5"/></linearGradient><linearGradient id="linear-gradient-2" x1="229.61" y1="254.09" x2="19.24" y2="43.71" xlink:href="#linear-gradient"/><linearGradient id="linear-gradient-3" x1="282.91" y1="285.02" x2="260.71" y2="274.67" gradientTransform="matrix(1, 0, 0, -1, 0, 317.39)" gradientUnits="userSpaceOnUse"><stop offset="0" stop-color="#010101"/><stop offset="0.11" stop-color="#080808"/><stop offset="0.26" stop-color="#17191a"/><stop offset="0.44" stop-color="#313636"/><stop offset="0.64" stop-color="#566061"/><stop offset="0.85" stop-color="#849394"/><stop offset="1" stop-color="#a9bdbf"/></linearGradient><linearGradient id="linear-gradient-4" x1="257.8" y1="311.03" x2="257.66" y2="285.38" xlink:href="#linear-gradient-3"/><linearGradient id="linear-gradient-5" x1="274.15" y1="301.01" x2="262.02" y2="281.97" xlink:href="#linear-gradient-3"/><linearGradient id="linear-gradient-6" x1="285.6" y1="272.63" x2="256.91" y2="267.25" xlink:href="#linear-gradient-3"/><linearGradient id="linear-gradient-7" x1="244.68" y1="313.35" x2="246.75" y2="286.18" xlink:href="#linear-gradient-3"/></defs><g id="Layer_2" data-name="Layer 2"><g id="Layer_2-2" data-name="Layer 2"><path class="cls-1" d="M0,292.87C28,294.2,83.56,254.59,95.92,242.23S245,93.27,264,74.29,300.16,13.5,289.79,3.12,237.6,10,218.62,28.94L50.57,197C38.33,209.24-1.4,265,0,292.87Z"/><path class="cls-2" d="M0,292.87C28,294.2,83.56,254.59,95.92,242.23S245,93.27,264,74.29,300.16,13.5,289.79,3.12,237.6,10,218.62,28.94L50.57,197C38.33,209.24-1.4,265,0,292.87Z"/><path class="cls-3" d="M33.58,259.33c16-4.41,55.72-37.85,65.21-47.34L241.24,69.55c14.57-14.57,19.09-28.8,15-32.88s-18.32.44-32.88,15L80.92,194.12C71.43,203.61,38,243.33,33.58,259.33Z"/><path class="cls-4" d="M268.6,34l3.09,6.63,7.06-.56L276.66,29.5Z"/><path class="cls-5" d="M258.89,24.42l4.31-8.16-10.37-2.1-.56,7.06Z"/><path class="cls-6" d="M271.47,21.66a18.54,18.54,0,0,0-2.75-2.2L264.85,17l-4.52,8.49,2.21,2.21,2.64,2.65,2.21,2.21L275.67,28l-1.77-3.09A13.4,13.4,0,0,0,271.47,21.66Z"/><path class="cls-7" d="M272,42.52l-1.33,9.82,1.22-.44A9.26,9.26,0,0,0,278,45.39l.89-3.42Z"/><path class="cls-8" d="M251,14.16l-3.42.88A9.25,9.25,0,0,0,241,21.11l-.44,1.22L250.4,21Z"/></g></g></svg>