<svg xmlns="http://www.w3.org/2000/svg" xmlns:xlink="http://www.w3.org/1999/xlink" viewBox="0 0 47.45 47.56"><defs><style>.cls-1{fill:url(#linear-gradient);}.cls-2{fill:url(#linear-gradient-2);}.cls-3,.cls-4{isolation:isolate;}.cls-3{opacity:0.5;fill:url(#linear-gradient-3);}.cls-4{opacity:0.75;fill:url(#linear-gradient-4);}</style><linearGradient id="linear-gradient" x1="0.41" y1="253.4" x2="45.17" y2="298.16" gradientTransform="matrix(1, 0, 0, -1, 0, 300.55)" gradientUnits="userSpaceOnUse"><stop offset="0" stop-color="#fff"/><stop offset="0.18" stop-color="#f9fbfb"/><stop offset="0.44" stop-color="#e6ebeb"/><stop offset="0.74" stop-color="#cad6d6"/><stop offset="1" stop-color="#a9bdbf"/></linearGradient><linearGradient id="linear-gradient-2" x1="-9.52" y1="327.98" x2="34.41" y2="261.42" xlink:href="#linear-gradient"/><linearGradient id="linear-gradient-3" x1="24.35" y1="278.74" x2="17.24" y2="285.85" gradientTransform="matrix(1, 0, 0, -1, 0, 300.55)" gradientUnits="userSpaceOnUse"><stop offset="0" stop-color="#fff" stop-opacity="0"/><stop offset="0.3" stop-color="#fff"/><stop offset="1" stop-color="#fff" stop-opacity="0"/></linearGradient><linearGradient id="linear-gradient-4" x1="7.09" y1="298.07" x2="37.93" y2="261.01" gradientTransform="matrix(1, 0, 0, -1, 0, 300.55)" gradientUnits="userSpaceOnUse"><stop offset="0" stop-color="#9ab0b4"/><stop offset="0.7" stop-color="#94a9ad" stop-opacity="0.3"/><stop offset="1" stop-color="#8ea5a8" stop-opacity="0"/></linearGradient></defs><g id="Layer_2" data-name="Layer 2"><g id="Layer_2-2" data-name="Layer 2"><path class="cls-1" d="M47.45,24.06,23.94,47.56,0,23.62,23.5.11l1.11.44A40,40,0,0,1,47.45,24.06Z"/><path class="cls-2" d="M45.13,18.76,34.87,29a15.72,15.72,0,0,1-16.33,3.75L9.82,29.68v-5a15.73,15.73,0,0,1,4.63-11.15L26.7,1.32A11.92,11.92,0,0,0,24.61.44L23.5,0,0,23.61l23.94,24L47.45,24.05A47.07,47.07,0,0,0,45.13,18.76Z"/><path class="cls-3" d="M11.36,35,37.51,8.83A40,40,0,0,0,29.79,3L4.63,28.25Z"/><path class="cls-4" d="M32.22,27.14C26.81,21.3,16.11,18.87,2.1,21.41L0,23.61l23.94,24,23.51-23.5a40,40,0,0,0-2.87-6.18C41.49,21.74,36,31.23,32.22,27.14Z"/></g></g></svg>