<svg id="Layer_1" data-name="Layer 1" xmlns="http://www.w3.org/2000/svg" xmlns:xlink="http://www.w3.org/1999/xlink" viewBox="0 0 519.76 401"><defs><style>.cls-1{fill:url(#linear-gradient);}.cls-2{fill:url(#linear-gradient-2);}.cls-3{fill:url(#linear-gradient-3);}.cls-4{fill:url(#linear-gradient-4);}.cls-5{fill:url(#linear-gradient-5);}.cls-6{fill:url(#linear-gradient-6);}.cls-7{fill:url(#linear-gradient-7);}.cls-8{fill:url(#linear-gradient-8);}.cls-9{fill:url(#linear-gradient-9);}.cls-10{fill:url(#linear-gradient-10);}.cls-11,.cls-12,.cls-15,.cls-16,.cls-23,.cls-24,.cls-27,.cls-28{isolation:isolate;}.cls-11,.cls-15,.cls-23,.cls-27{opacity:0.5;}.cls-11{fill:url(#linear-gradient-11);}.cls-12,.cls-16,.cls-24,.cls-28{opacity:0.75;}.cls-12{fill:url(#linear-gradient-12);}.cls-13{fill:url(#linear-gradient-13);}.cls-14{fill:url(#linear-gradient-14);}.cls-15{fill:url(#linear-gradient-15);}.cls-16{fill:url(#linear-gradient-16);}.cls-17{fill:url(#linear-gradient-17);}.cls-18{fill:url(#linear-gradient-18);}.cls-19{fill:url(#linear-gradient-19);}.cls-20{fill:url(#linear-gradient-20);}.cls-21{fill:url(#linear-gradient-21);}.cls-22{fill:url(#linear-gradient-22);}.cls-23{fill:url(#linear-gradient-23);}.cls-24{fill:url(#linear-gradient-24);}.cls-25{fill:url(#linear-gradient-25);}.cls-26{fill:url(#linear-gradient-26);}.cls-27{fill:url(#linear-gradient-27);}.cls-28{fill:url(#linear-gradient-28);}.cls-29{fill:url(#linear-gradient-29);}.cls-30{fill:url(#linear-gradient-30);}.cls-31{fill:url(#linear-gradient-31);}.cls-32{fill:url(#linear-gradient-32);}.cls-33{fill:url(#radial-gradient);}.cls-34{fill:url(#linear-gradient-33);}.cls-35{fill:url(#linear-gradient-34);}.cls-36{fill:url(#linear-gradient-35);}.cls-37{fill:url(#linear-gradient-36);}.cls-38{fill:url(#linear-gradient-37);}.cls-39{fill:url(#linear-gradient-38);}.cls-40{fill:url(#linear-gradient-39);}.cls-41{fill:url(#linear-gradient-40);}.cls-42{fill:url(#linear-gradient-41);}.cls-43{fill:url(#linear-gradient-42);}.cls-44{fill:#e6e7e8;stroke:#000;stroke-miterlimit:10;stroke-width:2px;}</style><linearGradient id="linear-gradient" x1="261.79" y1="978.45" x2="198.77" y2="1012.82" gradientTransform="translate(0 -474.61)" gradientUnits="userSpaceOnUse"><stop offset="0.49" stop-color="#fff"/><stop offset="0.59" stop-color="#f9fcfd"/><stop offset="0.72" stop-color="#e6eaea"/><stop offset="0.87" stop-color="#cad6d6"/><stop offset="1" stop-color="#a9bdc0"/></linearGradient><linearGradient id="linear-gradient-2" x1="201.3" y1="1027.74" x2="256.68" y2="972.36" gradientTransform="translate(0 -474.61)" gradientUnits="userSpaceOnUse"><stop offset="0" stop-color="#fff"/><stop offset="0.18" stop-color="#f9fcfd"/><stop offset="0.44" stop-color="#e6eaea"/><stop offset="0.74" stop-color="#cad6d6"/><stop offset="1" stop-color="#a9bdc0"/></linearGradient><linearGradient id="linear-gradient-3" x1="221.08" y1="983.84" x2="254.31" y2="980.99" gradientTransform="translate(0 -474.61)" gradientUnits="userSpaceOnUse"><stop offset="0" stop-color="#fff" stop-opacity="0"/><stop offset="0.19" stop-color="#f7f8f9" stop-opacity="0.09"/><stop offset="0.48" stop-color="#e0e6e6" stop-opacity="0.24"/><stop offset="0.85" stop-color="#bac9cb" stop-opacity="0.43"/><stop offset="1" stop-color="#a9bdc0" stop-opacity="0.5"/></linearGradient><linearGradient id="linear-gradient-4" x1="165.72" y1="1021.96" x2="250.03" y2="986.95" gradientTransform="translate(0 -474.61)" gradientUnits="userSpaceOnUse"><stop offset="0" stop-color="#fff" stop-opacity="0"/><stop offset="0.19" stop-color="#fdfeff" stop-opacity="0.09"/><stop offset="0.38" stop-color="#f1f3f3" stop-opacity="0.19"/><stop offset="0.57" stop-color="#dbe2e3" stop-opacity="0.28"/><stop offset="0.75" stop-color="#bfcccd" stop-opacity="0.38"/><stop offset="0.94" stop-color="#9db1b4" stop-opacity="0.47"/><stop offset="1" stop-color="#8ea5a8" stop-opacity="0.5"/></linearGradient><linearGradient id="linear-gradient-5" x1="197.63" y1="914.32" x2="163.25" y2="977.33" xlink:href="#linear-gradient"/><linearGradient id="linear-gradient-6" x1="185.46" y1="962.98" x2="197.51" y2="927.29" xlink:href="#linear-gradient-3"/><linearGradient id="linear-gradient-7" x1="153.13" y1="1006.27" x2="189.89" y2="925.87" gradientTransform="translate(0 -474.61)" gradientUnits="userSpaceOnUse"><stop offset="0" stop-color="#fff" stop-opacity="0"/><stop offset="0.22" stop-color="#fff" stop-opacity="0.11"/><stop offset="0.4" stop-color="#f2f4f5" stop-opacity="0.2"/><stop offset="0.57" stop-color="#e0e6e6" stop-opacity="0.29"/><stop offset="0.74" stop-color="#c9d4d5" stop-opacity="0.37"/><stop offset="0.89" stop-color="#a9bbbd" stop-opacity="0.45"/><stop offset="1" stop-color="#8ea5a8" stop-opacity="0.5"/></linearGradient><linearGradient id="linear-gradient-8" x1="152.55" y1="975.86" x2="193.71" y2="924.9" xlink:href="#linear-gradient-2"/><linearGradient id="linear-gradient-9" x1="406.59" y1="954.69" x2="445.11" y2="916.17" xlink:href="#linear-gradient-2"/><linearGradient id="linear-gradient-10" x1="470.87" y1="963.25" x2="413.59" y2="925.44" xlink:href="#linear-gradient-2"/><linearGradient id="linear-gradient-11" x1="428.47" y1="934.14" x2="434.6" y2="940.26" gradientTransform="translate(0 -474.61)" gradientUnits="userSpaceOnUse"><stop offset="0" stop-color="#fff" stop-opacity="0"/><stop offset="0.3" stop-color="#fff"/><stop offset="1" stop-color="#fff" stop-opacity="0"/></linearGradient><linearGradient id="linear-gradient-12" x1="445.13" y1="948.96" x2="413.24" y2="922.42" gradientTransform="translate(0 -474.61)" gradientUnits="userSpaceOnUse"><stop offset="0" stop-color="#9bb0b5"/><stop offset="0.7" stop-color="#95a9ad" stop-opacity="0.3"/><stop offset="1" stop-color="#8ea5a8" stop-opacity="0"/></linearGradient><linearGradient id="linear-gradient-13" x1="386.91" y1="891.08" x2="425.44" y2="852.55" xlink:href="#linear-gradient-2"/><linearGradient id="linear-gradient-14" x1="451.15" y1="899.73" x2="393.86" y2="861.93" xlink:href="#linear-gradient-2"/><linearGradient id="linear-gradient-15" x1="408.83" y1="870.53" x2="414.95" y2="876.64" xlink:href="#linear-gradient-11"/><linearGradient id="linear-gradient-16" x1="425.46" y1="885.38" x2="393.57" y2="858.83" xlink:href="#linear-gradient-12"/><linearGradient id="linear-gradient-17" x1="334.82" y1="953.74" x2="463.97" y2="860.05" xlink:href="#linear-gradient"/><linearGradient id="linear-gradient-18" x1="352.27" y1="937.98" x2="398.95" y2="916.65" gradientTransform="translate(0 -474.61)" gradientUnits="userSpaceOnUse"><stop offset="0" stop-color="#ec2727"/><stop offset="0.22" stop-color="#ec2227"/><stop offset="0.52" stop-color="#e32228"/><stop offset="0.88" stop-color="#c82628"/><stop offset="1" stop-color="#bd2d27"/></linearGradient><linearGradient id="linear-gradient-19" x1="516.47" y1="802.57" x2="386.37" y2="925.08" xlink:href="#linear-gradient-3"/><linearGradient id="linear-gradient-20" x1="310.06" y1="917.9" x2="435.41" y2="906.5" gradientTransform="translate(0 -474.61)" gradientUnits="userSpaceOnUse"><stop offset="0" stop-color="#fff" stop-opacity="0"/><stop offset="0.15" stop-color="#f7f8f9" stop-opacity="0.08"/><stop offset="0.4" stop-color="#e0e6e6" stop-opacity="0.2"/><stop offset="0.7" stop-color="#bac8ca" stop-opacity="0.35"/><stop offset="1" stop-color="#8ea5a8" stop-opacity="0.5"/></linearGradient><linearGradient id="linear-gradient-21" x1="285.03" y1="789.19" x2="323.55" y2="750.67" xlink:href="#linear-gradient-2"/><linearGradient id="linear-gradient-22" x1="276.42" y1="725.03" x2="314.23" y2="782.31" xlink:href="#linear-gradient-2"/><linearGradient id="linear-gradient-23" x1="305.65" y1="767.35" x2="299.53" y2="761.22" xlink:href="#linear-gradient-11"/><linearGradient id="linear-gradient-24" x1="290.79" y1="750.71" x2="317.33" y2="782.6" xlink:href="#linear-gradient-12"/><linearGradient id="linear-gradient-25" x1="221.43" y1="769.51" x2="259.95" y2="730.99" xlink:href="#linear-gradient-2"/><linearGradient id="linear-gradient-26" x1="212.88" y1="705.32" x2="250.69" y2="762.61" xlink:href="#linear-gradient-2"/><linearGradient id="linear-gradient-27" x1="242.03" y1="747.7" x2="235.9" y2="741.58" xlink:href="#linear-gradient-11"/><linearGradient id="linear-gradient-28" x1="227.18" y1="731.05" x2="253.73" y2="762.95" xlink:href="#linear-gradient-12"/><linearGradient id="linear-gradient-29" x1="222.43" y1="841.32" x2="316.12" y2="712.17" xlink:href="#linear-gradient"/><linearGradient id="linear-gradient-30" x1="316.97" y1="676.1" x2="254.93" y2="792.58" xlink:href="#linear-gradient-3"/><linearGradient id="linear-gradient-31" x1="258.28" y1="866.06" x2="269.67" y2="740.7" xlink:href="#linear-gradient-20"/><linearGradient id="linear-gradient-32" x1="238.12" y1="823.82" x2="259.45" y2="777.15" xlink:href="#linear-gradient-18"/><radialGradient id="radial-gradient" cx="-128.06" cy="617.2" r="16.62" gradientTransform="matrix(9.09, -8.86, 1.34, 1.38, 668.86, -1619.32)" xlink:href="#linear-gradient"/><linearGradient id="linear-gradient-33" x1="315.5" y1="837.5" x2="341.05" y2="863.06" xlink:href="#linear-gradient-3"/><linearGradient id="linear-gradient-34" x1="399.95" y1="776.16" x2="218.89" y2="957.22" xlink:href="#linear-gradient-3"/><linearGradient id="linear-gradient-35" x1="210.36" y1="944.71" x2="227.12" y2="961.75" xlink:href="#linear-gradient-2"/><linearGradient id="linear-gradient-36" x1="211.96" y1="838.62" x2="217.58" y2="1042.97" xlink:href="#linear-gradient-2"/><linearGradient id="linear-gradient-37" x1="199.69" y1="815.56" x2="216.69" y2="973.54" xlink:href="#linear-gradient-2"/><linearGradient id="linear-gradient-38" x1="445.81" y1="749.53" x2="426.71" y2="758.44" gradientTransform="translate(0 -474.61)" gradientUnits="userSpaceOnUse"><stop offset="0" stop-color="#020202"/><stop offset="0.11" stop-color="#0a0a0a"/><stop offset="0.26" stop-color="#17191a"/><stop offset="0.44" stop-color="#323636"/><stop offset="0.64" stop-color="#576162"/><stop offset="0.85" stop-color="#849394"/><stop offset="1" stop-color="#a9bdc0"/></linearGradient><linearGradient id="linear-gradient-39" x1="424.21" y1="727.15" x2="424.09" y2="749.23" xlink:href="#linear-gradient-38"/><linearGradient id="linear-gradient-40" x1="438.28" y1="735.78" x2="427.84" y2="752.17" xlink:href="#linear-gradient-38"/><linearGradient id="linear-gradient-41" x1="448.13" y1="760.2" x2="423.44" y2="764.83" xlink:href="#linear-gradient-38"/><linearGradient id="linear-gradient-42" x1="412.92" y1="725.15" x2="414.7" y2="748.54" xlink:href="#linear-gradient-38"/></defs><g id="Layer_2" data-name="Layer 2"><g id="Layer_2-2" data-name="Layer 2-2"><path class="cls-1" d="M241.49,483.36l14.44,55.95a18.07,18.07,0,0,1-5.7,18.23l-3.44,3L200.31,501.1l20.8-23.54Z" transform="translate(-49.27 -159.57)"/><path class="cls-2" d="M245.48,550.41a6.73,6.73,0,0,0,5.32,3.13l2.85.1a22.17,22.17,0,0,1-3.45,4l-3.44,2.94-46.47-59.38,4.18-4.65,7-.86Z" transform="translate(-49.27 -159.57)"/><path class="cls-3" d="M247.74,553.63c6.17-12-.86-33.14-12.05-70.46-13.2-44.16-9-5.61-9-5.61l-20.5,18.23C206.26,495.79,246.61,555.81,247.74,553.63Z" transform="translate(-49.27 -159.57)"/><path class="cls-4" d="M241.49,483.36l14.44,55.95a18.07,18.07,0,0,1-5.7,18.23l-3.44,3L200.31,501.1l20.8-23.54Z" transform="translate(-49.27 -159.57)"/><path class="cls-5" d="M218.13,460l-55.94-14.43A18.05,18.05,0,0,0,144,451.26L141,454.71l59.38,46.47,23.54-20.88Z" transform="translate(-49.27 -159.57)"/><path class="cls-6" d="M147.86,453.73c12-6.17,33.14.86,70.46,12,44.16,13.2,5.61,9,5.61,9l-18.24,20.52C205.69,495.23,145.68,454.87,147.86,453.73Z" transform="translate(-49.27 -159.57)"/><path class="cls-7" d="M218.13,460l-55.94-14.43A18.05,18.05,0,0,0,144,451.26L141,454.71l59.38,46.47,23.54-20.88Z" transform="translate(-49.27 -159.57)"/><path class="cls-8" d="M151.09,456a6.69,6.69,0,0,1-3.14-5.31l-.09-2.84a21.84,21.84,0,0,0-4,3.44L141,454.73l59.39,46.48,4.65-4.18.86-7Z" transform="translate(-49.27 -159.57)"/><path class="cls-9" d="M426.48,439.59l-20.24,20.23,20.62,20.6,20.22-20.22-.38-.95A34.43,34.43,0,0,0,426.48,439.59Z" transform="translate(-49.27 -159.57)"/><path class="cls-10" d="M431.06,441.57l-8.83,8.83A13.53,13.53,0,0,0,419,464.47l2.66,7.5H426a13.55,13.55,0,0,0,9.6-4l10.53-10.55a9.29,9.29,0,0,1,.77,1.81l.38.95-20.32,20.22-20.69-20.6,20.24-20.23A40.3,40.3,0,0,1,431.06,441.57Z" transform="translate(-49.27 -159.57)"/><path class="cls-11" d="M417.07,470.64l22.51-22.5a34.24,34.24,0,0,1,5,6.64L423,476.43Z" transform="translate(-49.27 -159.57)"/><path class="cls-12" d="M423.82,452.69c5,4.66,7.12,13.87,4.93,25.93l-1.8,1.8-20.71-20.6,20.24-20.23a34.7,34.7,0,0,1,5.32,2.47C428.48,444.72,420.3,449.46,423.82,452.69Z" transform="translate(-49.27 -159.57)"/><path class="cls-13" d="M406.82,376l-20.23,20.22,20.61,20.61,20.23-20.23-.38-.95A34.7,34.7,0,0,0,406.82,376Z" transform="translate(-49.27 -159.57)"/><path class="cls-14" d="M411.26,378.05l-8.83,8.83a13.52,13.52,0,0,0-3.22,14.05l2.66,7.51h4.31a13.51,13.51,0,0,0,9.59-4l10.55-10.53a10.52,10.52,0,0,1,.75,1.8l.38,1-20.22,20.23-20.62-20.61,20.24-20.23A23.32,23.32,0,0,1,411.26,378.05Z" transform="translate(-49.27 -159.57)"/><path class="cls-15" d="M397.42,407l22.51-22.51a35.45,35.45,0,0,1,5,6.65l-21.65,21.65Z" transform="translate(-49.27 -159.57)"/><path class="cls-16" d="M404.16,389.16c5,4.66,7.12,13.86,4.94,25.92l-1.81,1.81-20.6-20.61,20.23-20.23a34.59,34.59,0,0,1,5.31,2.47C408.82,381.09,400.56,385.84,404.16,389.16Z" transform="translate(-49.27 -159.57)"/><path class="cls-17" d="M330.47,399.32S377.86,450.41,391,483l25.26,62.48a2.63,2.63,0,0,0,4.56.47c8.07-10.73,15.49-29.05,12.15-41.69l-25.35-98a475.67,475.67,0,0,0-32.71-73.5l-4.75-8.61-48.33,57.46Z" transform="translate(-49.27 -159.57)"/><path class="cls-18" d="M406.1,520l-.19-.09L391,483.07c-13.24-32.57-60.53-83.67-60.53-83.67l-1.9-4.08,8.55-6.26c31,36.65,53.08,71.12,62.1,93.91C408.24,506.05,406,519.89,406.1,520Z" transform="translate(-49.27 -159.57)"/><path class="cls-19" d="M374.26,356c20.31,30.12,53.55,128,53.55,151.55s-2,4.85-4.3-9.46-23.17-76.44-31.84-91.36S360,368.58,360,368.58Z" transform="translate(-49.27 -159.57)"/><path class="cls-20" d="M330.47,399.32S377.86,450.41,391,483l25.26,62.48a2.63,2.63,0,0,0,4.56.47c8.07-10.73,15.49-29.05,12.15-41.69l-25.35-98a475.67,475.67,0,0,0-32.71-73.5l-4.75-8.61-48.33,57.46Z" transform="translate(-49.27 -159.57)"/><path class="cls-21" d="M325.53,294.68,305.31,314.9,284.7,294.3l20.22-20.23,1,.38A34.7,34.7,0,0,1,325.53,294.68Z" transform="translate(-49.27 -159.57)"/><path class="cls-22" d="M323.48,290.22l-8.87,8.83a13.54,13.54,0,0,1-14.05,3.23l-7.51-2.66v-4.3a13.55,13.55,0,0,1,4-9.52l10.54-10.59a10.23,10.23,0,0,0-1.8-.76l-.95-.38L284.6,294.3l20.61,20.6,20.22-20.22A23.28,23.28,0,0,0,323.48,290.22Z" transform="translate(-49.27 -159.57)"/><path class="cls-23" d="M294.48,304.08,317,281.57a34.61,34.61,0,0,0-6.65-5l-21.65,21.65Z" transform="translate(-49.27 -159.57)"/><path class="cls-24" d="M312.33,297.34c-4.65-5-13.86-7.13-25.92-4.94l-1.81,1.8,20.61,20.61,20.22-20.23a33.94,33.94,0,0,0-2.46-5.34C320.4,292.68,315.65,300.94,312.33,297.34Z" transform="translate(-49.27 -159.57)"/><path class="cls-25" d="M261.91,275l-20.19,20.24-20.66-20.65,20.23-20.23.94.38A34.44,34.44,0,0,1,261.91,275Z" transform="translate(-49.27 -159.57)"/><path class="cls-26" d="M259.91,270.46l-8.83,8.83A13.52,13.52,0,0,1,237,282.52l-7.5-2.66v-4.3a13.55,13.55,0,0,1,4-9.56l10.55-10.55a11,11,0,0,0-1.81-.76l-.95-.38-20.24,20.3,20.66,20.65L261.94,275A36.53,36.53,0,0,0,259.91,270.46Z" transform="translate(-49.27 -159.57)"/><path class="cls-27" d="M230.86,284.42l22.5-22.51a34.24,34.24,0,0,0-6.64-5l-21.66,21.75Z" transform="translate(-49.27 -159.57)"/><path class="cls-28" d="M248.8,277.67c-4.65-5-13.86-7.12-25.92-4.93l-1.82,1.87,20.66,20.65L261.94,275a32.41,32.41,0,0,0-2.47-5.31C256.78,273,252,281.19,248.8,277.67Z" transform="translate(-49.27 -159.57)"/><path class="cls-29" d="M302.17,371s-51.09-47.34-83.69-60.48L156,285.26a2.64,2.64,0,0,1-1.35-3.47,2.72,2.72,0,0,1,.88-1.08c10.83-8,29.16-15.39,41.78-12l98,25.34a476.57,476.57,0,0,1,73.5,32.7l8.61,4.75L320,379.75Z" transform="translate(-49.27 -159.57)"/><path class="cls-30" d="M345.48,327.24c-30.13-20.41-128.11-53.65-151.56-53.65s-4.85,2,9.46,4.31,76.45,23.16,91.36,31.84,38.2,31.65,38.2,31.65Z" transform="translate(-49.27 -159.57)"/><path class="cls-31" d="M302.17,371s-51.09-47.34-83.69-60.48L156,285.26a2.64,2.64,0,0,1-1.35-3.47,2.72,2.72,0,0,1,.88-1.08c10.83-8,29.16-15.39,41.78-12l98,25.34a476.57,476.57,0,0,1,73.5,32.7l8.61,4.75L320,379.75Z" transform="translate(-49.27 -159.57)"/><path class="cls-32" d="M181.47,295.44l.11.19,36.84,14.91C251,323.73,302.08,371,302.08,371l4.08,1.9,6.27-8.54c-36.66-30.87-71.13-53-93.92-62C195.43,293.25,181.58,295.53,181.47,295.44Z" transform="translate(-49.27 -159.57)"/><path class="cls-33" d="M202.37,499.12c24,1.15,71.88-32.94,82.52-43.58S413.18,327.31,429.47,311s31.19-52.31,22.24-61.25-44.89,5.92-61.22,22.22L245.86,416.61C235.32,427.15,201.13,475.14,202.37,499.12Z" transform="translate(-49.27 -159.57)"/><path class="cls-34" d="M202.37,499.12c24,1.15,71.88-32.94,82.52-43.58S413.18,327.31,429.47,311s31.19-52.31,22.24-61.25-44.89,5.92-61.22,22.22L245.86,416.61C235.32,427.15,201.13,475.14,202.37,499.12Z" transform="translate(-49.27 -159.57)"/><path class="cls-35" d="M231.23,470.26c13.77-3.8,48-32.58,56.13-40.75L410,306.93c12.54-12.54,16.43-24.79,12.91-28.3s-15.76.38-28.29,12.91L272,414.13C263.81,422.3,235,456.49,231.23,470.26Z" transform="translate(-49.27 -159.57)"/><path class="cls-36" d="M232,479.57c11.58-11.3,7.21-17.39,7.21-17.39L202.27,497v2.09c6.27.29,14.06-1.81,22.38-5.22C224.78,490.39,226.23,485.27,232,479.57Z" transform="translate(-49.27 -159.57)"/><path class="cls-37" d="M191.16,510.34c4.08-.48,13-7.41,15.1-9.47l27.63-27.64c3.23-3.22,6.65-9.68,5.32-10.91s-7.74,2.18-10.92,5.32l-27.63,27.63C198.56,497.32,191.54,506.34,191.16,510.34Z" transform="translate(-49.27 -159.57)"/><path class="cls-38" d="M206.26,500.83c2.09-2.09,30.29-29.82,25.64-25.64,6.56-5.79,11.11-16.71,4.56-10.06l-45.3,45.29C195.15,510,204.17,502.92,206.26,500.83Z" transform="translate(-49.27 -159.57)"/><path class="cls-39" d="M433.5,276.33l2.66,5.71,6.08-.49-1.8-9.09Z" transform="translate(-49.27 -159.57)"/><path class="cls-40" d="M425.14,268.08l3.71-7-8.92-1.81-.48,6.08Z" transform="translate(-49.27 -159.57)"/><path class="cls-41" d="M436,265.71a16.06,16.06,0,0,0-2.38-1.89l-3.33-2.12L426.38,269l1.91,1.9,2.27,2.28,1.9,1.9,7.13-3.92-1.53-2.66A11.65,11.65,0,0,0,436,265.71Z" transform="translate(-49.27 -159.57)"/><path class="cls-42" d="M436.45,283.66l-1.14,8.45,1.05-.38a7.92,7.92,0,0,0,5.21-5.6l.77-2.94Z" transform="translate(-49.27 -159.57)"/><path class="cls-43" d="M418.31,259.25l-2.94.76a8,8,0,0,0-5.61,5.23l-.37,1.05,8.45-1.15Z" transform="translate(-49.27 -159.57)"/></g></g><g id="Layer_2-2-2" data-name="Layer 2"><g id="Layer_2-2-3" data-name="Layer 2-2"><path class="cls-44" d="M549.3,350.61A17.67,17.67,0,0,0,539,327.86a17.86,17.86,0,0,0-6.1-1.13,17.52,17.52,0,0,0-9.77,3,29.31,29.31,0,0,0-54.72,14.58v1.48A26.39,26.39,0,0,0,477.15,397H544.6a23.46,23.46,0,0,0,4.71-46.43Z" transform="translate(-49.27 -159.57)"/></g></g><g id="Layer_2-3" data-name="Layer 2"><g id="Layer_2-2-4" data-name="Layer 2-2"><path class="cls-44" d="M148.82,217.16a17.67,17.67,0,0,0-10.32-22.75,17.36,17.36,0,0,0-15.87,1.84,29.31,29.31,0,0,0-54.72,14.57v1.49a26.39,26.39,0,0,0,8.76,51.28h67.45a23.46,23.46,0,0,0,4.71-46.43Z" transform="translate(-49.27 -159.57)"/></g></g><g id="Layer_2-4" data-name="Layer 2"><g id="Layer_2-2-5" data-name="Layer 2-2"><path class="cls-44" d="M213.38,196.19A17.67,17.67,0,0,0,197,172.31a17.44,17.44,0,0,0-9.77,3,29.31,29.31,0,0,0-54.72,14.57v1.49a26.39,26.39,0,0,0,8.76,51.28h67.45a23.46,23.46,0,0,0,4.71-46.43Z" transform="translate(-49.27 -159.57)"/></g></g></svg>