<svg xmlns="http://www.w3.org/2000/svg" xmlns:xlink="http://www.w3.org/1999/xlink" viewBox="0 0 134.18 134.29"><defs><style>.cls-1{fill:url(#linear-gradient);}.cls-2{fill:url(#linear-gradient-2);}.cls-3{fill:url(#linear-gradient-3);}.cls-4{fill:url(#linear-gradient-4);}.cls-5{fill:url(#linear-gradient-5);}.cls-6{fill:url(#linear-gradient-6);}.cls-7{fill:url(#linear-gradient-7);}.cls-8{fill:url(#linear-gradient-8);}.cls-9{fill:url(#linear-gradient-9);}.cls-10{fill:url(#linear-gradient-10);}.cls-11{fill:url(#linear-gradient-11);}</style><linearGradient id="linear-gradient" x1="140.33" y1="-210.95" x2="67.11" y2="-250.89" gradientTransform="matrix(1, 0, 0, -1, 0, -142.56)" gradientUnits="userSpaceOnUse"><stop offset="0.49" stop-color="#fff"/><stop offset="0.59" stop-color="#f9fbfb"/><stop offset="0.72" stop-color="#e6ebeb"/><stop offset="0.87" stop-color="#cad6d6"/><stop offset="1" stop-color="#a9bdbf"/></linearGradient><linearGradient id="linear-gradient-2" x1="70.08" y1="-268.24" x2="134.43" y2="-203.9" gradientTransform="matrix(1, 0, 0, -1, 0, -142.56)" gradientUnits="userSpaceOnUse"><stop offset="0" stop-color="#fff"/><stop offset="0.18" stop-color="#f9fbfb"/><stop offset="0.44" stop-color="#e6ebeb"/><stop offset="0.74" stop-color="#cad6d6"/><stop offset="1" stop-color="#a9bdbf"/></linearGradient><linearGradient id="linear-gradient-3" x1="93.02" y1="-217.2" x2="131.63" y2="-213.89" gradientTransform="matrix(1, 0, 0, -1, 0, -142.56)" gradientUnits="userSpaceOnUse"><stop offset="0" stop-color="#fff" stop-opacity="0"/><stop offset="0.19" stop-color="#f7f8f9" stop-opacity="0.09"/><stop offset="0.48" stop-color="#e0e6e6" stop-opacity="0.24"/><stop offset="0.85" stop-color="#bac9cb" stop-opacity="0.43"/><stop offset="1" stop-color="#a9bdbf" stop-opacity="0.5"/></linearGradient><linearGradient id="linear-gradient-4" x1="28.7" y1="-261.51" x2="126.67" y2="-220.83" gradientTransform="matrix(1, 0, 0, -1, 0, -142.56)" gradientUnits="userSpaceOnUse"><stop offset="0" stop-color="#fff" stop-opacity="0"/><stop offset="0.19" stop-color="#fcfdfd" stop-opacity="0.09"/><stop offset="0.38" stop-color="#f0f3f3" stop-opacity="0.19"/><stop offset="0.57" stop-color="#dbe2e3" stop-opacity="0.28"/><stop offset="0.75" stop-color="#bfcccd" stop-opacity="0.38"/><stop offset="0.94" stop-color="#9cb0b3" stop-opacity="0.47"/><stop offset="1" stop-color="#8ea5a8" stop-opacity="0.5"/></linearGradient><linearGradient id="linear-gradient-5" x1="65.78" y1="-136.42" x2="25.84" y2="-209.65" xlink:href="#linear-gradient"/><linearGradient id="linear-gradient-6" x1="51.64" y1="-192.97" x2="65.64" y2="-151.49" xlink:href="#linear-gradient-3"/><linearGradient id="linear-gradient-7" x1="14.08" y1="-243.26" x2="56.79" y2="-149.85" gradientTransform="matrix(1, 0, 0, -1, 0, -142.56)" gradientUnits="userSpaceOnUse"><stop offset="0" stop-color="#fff" stop-opacity="0"/><stop offset="0.22" stop-color="#fdfeff" stop-opacity="0.11"/><stop offset="0.4" stop-color="#f2f4f4" stop-opacity="0.2"/><stop offset="0.57" stop-color="#e0e6e6" stop-opacity="0.29"/><stop offset="0.74" stop-color="#c8d3d4" stop-opacity="0.37"/><stop offset="0.89" stop-color="#a9bbbd" stop-opacity="0.45"/><stop offset="1" stop-color="#8ea5a8" stop-opacity="0.5"/></linearGradient><linearGradient id="linear-gradient-8" x1="13.34" y1="-207.89" x2="61.16" y2="-148.68" xlink:href="#linear-gradient-2"/><linearGradient id="linear-gradient-9" x1="80.57" y1="-171.73" x2="100.04" y2="-191.54" xlink:href="#linear-gradient-2"/><linearGradient id="linear-gradient-10" x1="82.42" y1="-48.46" x2="88.95" y2="-285.9" xlink:href="#linear-gradient-2"/><linearGradient id="linear-gradient-11" x1="68.16" y1="-21.66" x2="87.92" y2="-205.24" xlink:href="#linear-gradient-2"/></defs><g id="Layer_2" data-name="Layer 2"><g id="Layer_2-2" data-name="Layer 2"><path class="cls-1" d="M116.74,44.59l16.77,65a21,21,0,0,1-6.62,21.19l-4,3.42-54-69L93.13,37.85Z"/><path class="cls-2" d="M121.37,122.48a7.82,7.82,0,0,0,6.18,3.64l3.31.11a25.72,25.72,0,0,1-4,4.64l-4,3.42-54-69,4.86-5.41,8.16-1Z"/><path class="cls-3" d="M124,126.23c7.17-14-1-38.51-14-81.87C94.67-6.95,99.52,37.85,99.52,37.85L75.69,59C75.8,59,122.69,128.77,124,126.23Z"/><path class="cls-4" d="M116.74,44.59l16.77,65a21,21,0,0,1-6.62,21.19l-4,3.42-54-69L93.13,37.85Z"/><path class="cls-5" d="M89.59,17.44,24.61.66A21,21,0,0,0,3.42,7.29L0,11.26l69,54L96.33,41.05Z"/><path class="cls-6" d="M7.94,10.15c14-7.17,38.51,1,81.88,14,51.3,15.33,6.51,10.48,6.51,10.48L75.14,58.48C75.14,58.37,5.41,11.48,7.94,10.15Z"/><path class="cls-7" d="M89.59,17.44,24.61.66A21,21,0,0,0,3.42,7.29L0,11.26l69,54L96.33,41.05Z"/><path class="cls-8" d="M11.7,12.8A7.84,7.84,0,0,1,8.05,6.62L7.94,3.31a26.07,26.07,0,0,0-4.63,4L0,11.25l69,54,5.41-4.86,1-8.16Z"/><path class="cls-9" d="M105.71,40.17C119.17,27,114.09,20,114.09,20L71.17,60.47V62.9c7.28.33,16.33-2.1,26-6.07C97.32,52.75,99,46.79,105.71,40.17Z"/><path class="cls-10" d="M58.26,75.92c4.74-.55,15.11-8.6,17.54-11l32.11-32.11c3.75-3.75,7.72-11.26,6.18-12.69s-9,2.54-12.69,6.18L69.29,58.38C66.86,60.8,58.7,71.29,58.26,75.92Z"/><path class="cls-11" d="M75.8,64.88c2.43-2.43,35.2-34.65,29.79-29.79,7.62-6.73,12.91-19.42,5.3-11.7S58.26,76,58.26,76C62.89,75.47,73.37,67.31,75.8,64.88Z"/></g></g></svg>