<svg xmlns="http://www.w3.org/2000/svg" xmlns:xlink="http://www.w3.org/1999/xlink" viewBox="0 0 38.29 38.18"><defs><style>.cls-1{fill:url(#linear-gradient);}.cls-2{fill:url(#linear-gradient-2);}.cls-3{fill:url(#linear-gradient-3);}.cls-4{fill:url(#linear-gradient-4);}.cls-5{fill:url(#linear-gradient-5);}</style><linearGradient id="linear-gradient" x1="42.34" y1="270.86" x2="20.13" y2="260.51" gradientTransform="matrix(1, 0, 0, -1, 0, 289.07)" gradientUnits="userSpaceOnUse"><stop offset="0" stop-color="#010101"/><stop offset="0.11" stop-color="#080808"/><stop offset="0.26" stop-color="#17191a"/><stop offset="0.44" stop-color="#313636"/><stop offset="0.64" stop-color="#566061"/><stop offset="0.85" stop-color="#849394"/><stop offset="1" stop-color="#a9bdbf"/></linearGradient><linearGradient id="linear-gradient-2" x1="17.22" y1="296.87" x2="17.09" y2="271.22" xlink:href="#linear-gradient"/><linearGradient id="linear-gradient-3" x1="33.57" y1="286.84" x2="21.44" y2="267.81" xlink:href="#linear-gradient"/><linearGradient id="linear-gradient-4" x1="45.02" y1="258.47" x2="16.33" y2="253.09" xlink:href="#linear-gradient"/><linearGradient id="linear-gradient-5" x1="4.1" y1="299.19" x2="6.17" y2="272.02" xlink:href="#linear-gradient"/></defs><g id="Layer_2" data-name="Layer 2"><g id="Layer_2-2" data-name="Layer 2"><path class="cls-1" d="M28,19.86l3.08,6.62,7.07-.55-2.1-10.59Z"/><path class="cls-2" d="M18.31,10.26,22.62,2.1,12.25,0,11.7,7.06Z"/><path class="cls-3" d="M30.9,7.5a19.94,19.94,0,0,0-2.76-2.21L24.28,2.87l-4.53,8.49L22,13.57l2.65,2.65,2.2,2.2,8.28-4.63L33.32,10.7A13.63,13.63,0,0,0,30.9,7.5Z"/><path class="cls-4" d="M31.45,28.36l-1.33,9.82,1.22-.45a9.25,9.25,0,0,0,6.07-6.51l.88-3.42Z"/><path class="cls-5" d="M10.37,0,7,.88A9.25,9.25,0,0,0,.44,7L0,8.17,9.82,6.84Z"/></g></g></svg>