<svg xmlns="http://www.w3.org/2000/svg" xmlns:xlink="http://www.w3.org/1999/xlink" viewBox="0 0 259.13 130.04"><defs><style>.cls-1{fill:url(#linear-gradient);}.cls-2{fill:url(#linear-gradient-2);}.cls-3{fill:url(#linear-gradient-3);}.cls-4{fill:url(#linear-gradient-4);}</style><linearGradient id="linear-gradient" x1="78.99" y1="154.24" x2="187.86" y2="304.3" gradientTransform="matrix(1, 0, 0, -1, 0, 269.14)" gradientUnits="userSpaceOnUse"><stop offset="0.49" stop-color="#fff"/><stop offset="0.59" stop-color="#f9fbfb"/><stop offset="0.72" stop-color="#e6ebeb"/><stop offset="0.87" stop-color="#cad6d6"/><stop offset="1" stop-color="#a9bdbf"/></linearGradient><linearGradient id="linear-gradient-2" x1="188.83" y1="346.22" x2="116.74" y2="210.88" gradientTransform="matrix(1, 0, 0, -1, 0, 269.14)" gradientUnits="userSpaceOnUse"><stop offset="0" stop-color="#fff" stop-opacity="0"/><stop offset="0.19" stop-color="#f7f8f9" stop-opacity="0.09"/><stop offset="0.48" stop-color="#e0e6e6" stop-opacity="0.24"/><stop offset="0.85" stop-color="#bac9cb" stop-opacity="0.43"/><stop offset="1" stop-color="#a9bdbf" stop-opacity="0.5"/></linearGradient><linearGradient id="linear-gradient-3" x1="120.66" y1="125.5" x2="133.9" y2="271.15" gradientTransform="matrix(1, 0, 0, -1, 0, 269.14)" gradientUnits="userSpaceOnUse"><stop offset="0" stop-color="#fff" stop-opacity="0"/><stop offset="0.15" stop-color="#f7f8f9" stop-opacity="0.08"/><stop offset="0.4" stop-color="#e0e6e6" stop-opacity="0.2"/><stop offset="0.7" stop-color="#bac8ca" stop-opacity="0.35"/><stop offset="1" stop-color="#8ea5a8" stop-opacity="0.5"/></linearGradient><linearGradient id="linear-gradient-4" x1="97.22" y1="174.57" x2="122" y2="228.81" gradientTransform="matrix(1, 0, 0, -1, 0, 269.14)" gradientUnits="userSpaceOnUse"><stop offset="0" stop-color="#ed2224"/><stop offset="0.22" stop-color="#ed1c24"/><stop offset="0.52" stop-color="#e41e26"/><stop offset="0.88" stop-color="#c82527"/><stop offset="1" stop-color="#bd2a26"/></linearGradient></defs><g id="Layer_2" data-name="Layer 2"><g id="Layer_2-2" data-name="Layer 2"><path class="cls-1" d="M171.63,119.89S112.27,64.83,74.42,49.61L1.82,20.26A3.06,3.06,0,0,1,1.27,15C13.85,5.69,35.14-2.92,49.82,1L163.69,30.41a553.42,553.42,0,0,1,85.4,38l10,5.52L192.37,130Z"/><path class="cls-2" d="M222,69C187,45.31,73.1,6.69,45.85,6.69s-5.63,2.32,11,5S145.7,38.58,163,48.62s44.35,36.86,44.35,36.86Z"/><path class="cls-3" d="M171.63,119.89S112.27,64.83,74.42,49.61L1.82,20.26A3.06,3.06,0,0,1,1.27,15C13.85,5.69,35.14-2.92,49.82,1L163.69,30.41a553.42,553.42,0,0,1,85.4,38l10,5.52L192.37,130Z"/><path class="cls-4" d="M31.39,32.08l.11.22L74.31,49.62c37.85,15.34,97.21,70.29,97.21,70.29l4.75,2.2,7.28-9.93C141,76.32,100.9,50.61,74.42,40.13,47.61,29.54,31.5,32.19,31.39,32.08Z"/></g></g></svg>