<?xml version="1.0" encoding="utf-8"?>
<!-- Generator: Adobe Illustrator 26.0.2, SVG Export Plug-In . SVG Version: 6.00 Build 0)  -->
<svg version="1.1" id="Group_2" xmlns="http://www.w3.org/2000/svg" xmlns:xlink="http://www.w3.org/1999/xlink" x="0px" y="0px"
	 viewBox="0 0 663 230.1" style="enable-background:new 0 0 663 230.1;" xml:space="preserve">
<g id="Group_1_00000021093899282721080860000017885283302359522489_">
	<path fill="#ffffff" id="Path_2_00000109020473984320206030000010209239731408359044_" d="M126.6,149.5c0,31.4-20.7,58.4-64.4,58.4
		C22.1,207.9,0,182.3,0,149.7c0-30.6,21.5-58,63.9-58C104,91.7,126.6,118,126.6,149.5 M38,149.2c0,19.3,7.7,33.7,25.9,33.7
		c18.7,0,24.6-16.4,24.6-33c0-19.3-6.8-33.5-25.6-33.5C45.1,116.3,38,131,38,149.2 M102.1,188.7l31,20.7l-18,20.7l-41.7-27.6
		L102.1,188.7z"/>

	<path fill="#ffffff" id="Path_3_00000142880283412212548630000009187955721485396916_" d="M173,94.2v64.3c0,17.7,8.5,23.5,20.4,23.5
		c12.5,0,19.1-6.5,19.1-23.5V94.2h36.2v64.5c0,32.3-18,49.2-56.1,49.2c-36.8,0-55.7-16-55.7-49.2V94.2H173z"/>
		
	<rect fill="#ffffff" id="Rectangle_5_00000106836805420266426580000011923085724591772040_" x="265.3" y="132.5" width="36.2" height="72.9"/>
	
	<path fill="#ffffff" id="Path_4_00000135666803313212030070000011044735595112882860_" d="M311.3,183.3l61.7-63.7h-58.7V94.2H418v24.5l-60.5,61.4
		h66.4l-3.9,25.3H311.4v-22.1H311.3z"/>
	
	<path  fill="#ffffff" id="Path_5_00000082357083730949071260000013428497093923143580_" d="M426.8,183.3l61.7-63.7h-58.7V94.2h103.7v24.5
		l-60.6,61.4h66.4l-3.9,25.3H426.8V183.3z"/>
	
	<path fill="#ffffff" id="Path_6_00000090277762317129141420000006085253882949725320_" d="M580.3,205.4v-38.5c0-1.8-0.5-2.6-1.6-4.3L534,94.2h42.4
		c8.9,16,18.3,32.8,23.7,44.6c5.3-11.4,15-27.8,24.1-44.6H663l-45.6,69.4c-0.7,1.2-1,2.5-0.9,3.8v37.9L580.3,205.4z"/>
	
	<path fill="#ffffff" id="Path_7_00000023986591530837773710000002086077491057216667_" d="M265.4,102.5c0,1.4,0.4,2.8,1.2,4l3.9,5.8
		c1.3,2,3.6,3.2,6,3.2h13.9c2.4,0,4.7-1.2,6-3.2l3.9-5.8c0.8-1.2,1.2-2.6,1.2-4v-8.6h-36.1V102.5z M243.7,39.7
		c0,9.6,3.5,18.9,9.8,26.1c3.7,4.2,9.5,13.1,11.8,20.6c0,0.1,0,0.1,0,0.2h36.1c0-0.1,0-0.1,0-0.2c2.2-7.5,8-16.4,11.8-20.6
		c14.4-16.5,12.7-41.6-3.8-56s-41.6-12.7-56,3.8C247.2,20.9,243.7,30.1,243.7,39.7"/>
</g>
</svg>
